<svg xmlns="http://www.w3.org/2000/svg" width="1600" height="860" viewBox="0 0 1600 860"><rect width="100%" height="100%" fill="#faf8f3"/>
<text x="40" y="25" font-family="Arial, sans-serif" font-size="30" fill="#343c3d" text-anchor="start" dominant-baseline="hanging">COTTAGE 01 | one private suite, two floors</text>
<text x="40" y="70" font-family="Arial, sans-serif" font-size="18" fill="#343c3d" text-anchor="start" dominant-baseline="hanging">Ground floor: foyer and sitting space. First floor: bedroom with a window over the private garden.</text>
<text x="45" y="140" font-family="Arial, sans-serif" font-size="23" fill="#343c3d" text-anchor="start" dominant-baseline="hanging">+40 · Garden / foyer level</text>
<rect x="60" y="210" width="660" height="420" fill="#fffefa" stroke="#bcb6aa" stroke-width="1"/>
<rect x="390" y="405" width="150" height="30" fill="#dcdce7" stroke="none" stroke-width="1"/>
<rect x="615" y="225" width="83" height="83" fill="#d5e8eb" stroke="none" stroke-width="1"/>
<rect x="75" y="225" width="300" height="315" fill="#eee1c4" stroke="none" stroke-width="1"/>
<rect x="555" y="330" width="150" height="210" fill="#eee1c4" stroke="none" stroke-width="1"/>
<rect x="75" y="555" width="630" height="60" fill="#eee1c4" stroke="none" stroke-width="1"/>
<rect x="585" y="375" width="75" height="45" fill="#aba59a" stroke="#817c73" stroke-width="1"/>
<rect x="120" y="270" width="120" height="30" fill="#aba59a" stroke="#817c73" stroke-width="1"/>
<rect x="120" y="435" width="120" height="30" fill="#aba59a" stroke="#817c73" stroke-width="1"/>
<rect x="150" y="360" width="60" height="30" fill="#aba59a" stroke="#817c73" stroke-width="1"/>
<polyline points="390,270 450,270" fill="none" stroke="#8d8997" stroke-width="1"/>
<polyline points="480,270 540,270" fill="none" stroke="#8d8997" stroke-width="1"/>
<polyline points="390,284 450,284" fill="none" stroke="#8d8997" stroke-width="1"/>
<polyline points="480,284 540,284" fill="none" stroke="#8d8997" stroke-width="1"/>
<polyline points="390,297 450,297" fill="none" stroke="#8d8997" stroke-width="1"/>
<polyline points="480,297 540,297" fill="none" stroke="#8d8997" stroke-width="1"/>
<polyline points="390,310 450,310" fill="none" stroke="#8d8997" stroke-width="1"/>
<polyline points="480,310 540,310" fill="none" stroke="#8d8997" stroke-width="1"/>
<polyline points="390,324 450,324" fill="none" stroke="#8d8997" stroke-width="1"/>
<polyline points="480,324 540,324" fill="none" stroke="#8d8997" stroke-width="1"/>
<polyline points="390,338 450,338" fill="none" stroke="#8d8997" stroke-width="1"/>
<polyline points="480,338 540,338" fill="none" stroke="#8d8997" stroke-width="1"/>
<polyline points="390,351 450,351" fill="none" stroke="#8d8997" stroke-width="1"/>
<polyline points="480,351 540,351" fill="none" stroke="#8d8997" stroke-width="1"/>
<polyline points="390,364 450,364" fill="none" stroke="#8d8997" stroke-width="1"/>
<polyline points="480,364 540,364" fill="none" stroke="#8d8997" stroke-width="1"/>
<polyline points="390,378 450,378" fill="none" stroke="#8d8997" stroke-width="1"/>
<polyline points="480,378 540,378" fill="none" stroke="#8d8997" stroke-width="1"/>
<polyline points="390,392 450,392" fill="none" stroke="#8d8997" stroke-width="1"/>
<polyline points="480,392 540,392" fill="none" stroke="#8d8997" stroke-width="1"/>
<polyline points="420,390 420,285 405,300" fill="none" stroke="#666275" stroke-width="2"/>
<polyline points="510,285 510,390 525,375" fill="none" stroke="#666275" stroke-width="2"/>
<rect x="60" y="210" width="15" height="420" fill="#44494a" stroke="none" stroke-width="1"/>
<rect x="60" y="315" width="15" height="75" fill="#86afb9" stroke="none" stroke-width="1"/>
<rect x="60" y="435" width="15" height="75" fill="#86afb9" stroke="none" stroke-width="1"/>
<rect x="705" y="210" width="15" height="420" fill="#44494a" stroke="none" stroke-width="1"/>
<rect x="705" y="375" width="15" height="105" fill="#86afb9" stroke="none" stroke-width="1"/>
<rect x="60" y="210" width="660" height="15" fill="#44494a" stroke="none" stroke-width="1"/>
<rect x="135" y="210" width="90" height="15" fill="#86afb9" stroke="none" stroke-width="1"/>
<rect x="615" y="210" width="60" height="15" fill="#86afb9" stroke="none" stroke-width="1"/>
<rect x="60" y="615" width="660" height="15" fill="#44494a" stroke="none" stroke-width="1"/>
<rect x="135" y="615" width="60" height="15" fill="#faf8f3" stroke="none" stroke-width="1"/>
<polyline points="135,622 195,622" fill="none" stroke="#4f9478" stroke-width="2"/>
<rect x="285" y="615" width="60" height="15" fill="#86afb9" stroke="none" stroke-width="1"/>
<rect x="405" y="615" width="45" height="15" fill="#faf8f3" stroke="none" stroke-width="1"/>
<polyline points="405,622 450,622" fill="none" stroke="#4f9478" stroke-width="2"/>
<rect x="540" y="615" width="105" height="15" fill="#86afb9" stroke="none" stroke-width="1"/>
<rect x="375" y="210" width="15" height="240" fill="#44494a" stroke="none" stroke-width="1"/>
<rect x="540" y="210" width="15" height="240" fill="#44494a" stroke="none" stroke-width="1"/>
<rect x="375" y="435" width="180" height="15" fill="#44494a" stroke="none" stroke-width="1"/>
<rect x="450" y="435" width="60" height="15" fill="#faf8f3" stroke="none" stroke-width="1"/>
<polyline points="450,442 510,442" fill="none" stroke="#4f9478" stroke-width="2"/>
<rect x="698" y="218" width="14" height="104" fill="#44494a" stroke="none" stroke-width="1"/>
<rect x="608" y="308" width="104" height="14" fill="#44494a" stroke="none" stroke-width="1"/>
<rect x="638" y="308" width="44" height="14" fill="#faf8f3" stroke="none" stroke-width="1"/>
<polyline points="638,315 682,315" fill="none" stroke="#4f9478" stroke-width="2"/>
<rect x="60" y="540" width="660" height="15" fill="#44494a" stroke="none" stroke-width="1"/>
<rect x="150" y="540" width="60" height="15" fill="#faf8f3" stroke="none" stroke-width="1"/>
<polyline points="150,548 210,548" fill="none" stroke="#4f9478" stroke-width="2"/>
<rect x="555" y="540" width="60" height="15" fill="#faf8f3" stroke="none" stroke-width="1"/>
<polyline points="555,548 615,548" fill="none" stroke="#4f9478" stroke-width="2"/>
<text x="480" y="420" font-family="Arial, sans-serif" font-size="12" fill="#343c3d" text-anchor="middle" dominant-baseline="central">Landing</text>
<text x="652" y="262" font-family="Arial, sans-serif" font-size="12" fill="#343c3d" text-anchor="middle" dominant-baseline="central">Bath</text>
<text x="195" y="495" font-family="Arial, sans-serif" font-size="17" fill="#343c3d" text-anchor="middle" dominant-baseline="central">Private sitting room</text>
<text x="630" y="480" font-family="Arial, sans-serif" font-size="13" fill="#343c3d" text-anchor="middle" dominant-baseline="central">Private dining</text>
<text x="630" y="496" font-family="Arial, sans-serif" font-size="13" fill="#343c3d" text-anchor="middle" dominant-baseline="central">Nook</text>
<text x="390" y="585" font-family="Arial, sans-serif" font-size="11" fill="#343c3d" text-anchor="middle" dominant-baseline="central">Cottage foyer</text>
<text x="835" y="140" font-family="Arial, sans-serif" font-size="23" fill="#343c3d" text-anchor="start" dominant-baseline="hanging">+54 · Bedroom level</text>
<rect x="850" y="210" width="660" height="420" fill="#fffefa" stroke="#bcb6aa" stroke-width="1"/>
<rect x="1180" y="405" width="150" height="30" fill="#dcdce7" stroke="none" stroke-width="1"/>
<rect x="1405" y="225" width="83" height="83" fill="#d5e8eb" stroke="none" stroke-width="1"/>
<rect x="865" y="225" width="300" height="375" fill="#eee1c4" stroke="none" stroke-width="1"/>
<rect x="1345" y="330" width="150" height="270" fill="#eee1c4" stroke="none" stroke-width="1"/>
<rect x="895" y="555" width="150" height="60" fill="#eee1c4" stroke="none" stroke-width="1"/>
<rect x="1180" y="225" width="150" height="180" fill="#cfced5" stroke="#888494" stroke-width="1"/>
<rect x="940" y="270" width="120" height="150" fill="#aba59a" stroke="#817c73" stroke-width="1"/>
<rect x="1360" y="390" width="120" height="30" fill="#aba59a" stroke="#817c73" stroke-width="1"/>
<polyline points="1180,270 1240,270" fill="none" stroke="#8d8997" stroke-width="1"/>
<polyline points="1270,270 1330,270" fill="none" stroke="#8d8997" stroke-width="1"/>
<polyline points="1180,284 1240,284" fill="none" stroke="#8d8997" stroke-width="1"/>
<polyline points="1270,284 1330,284" fill="none" stroke="#8d8997" stroke-width="1"/>
<polyline points="1180,297 1240,297" fill="none" stroke="#8d8997" stroke-width="1"/>
<polyline points="1270,297 1330,297" fill="none" stroke="#8d8997" stroke-width="1"/>
<polyline points="1180,310 1240,310" fill="none" stroke="#8d8997" stroke-width="1"/>
<polyline points="1270,310 1330,310" fill="none" stroke="#8d8997" stroke-width="1"/>
<polyline points="1180,324 1240,324" fill="none" stroke="#8d8997" stroke-width="1"/>
<polyline points="1270,324 1330,324" fill="none" stroke="#8d8997" stroke-width="1"/>
<polyline points="1180,338 1240,338" fill="none" stroke="#8d8997" stroke-width="1"/>
<polyline points="1270,338 1330,338" fill="none" stroke="#8d8997" stroke-width="1"/>
<polyline points="1180,351 1240,351" fill="none" stroke="#8d8997" stroke-width="1"/>
<polyline points="1270,351 1330,351" fill="none" stroke="#8d8997" stroke-width="1"/>
<polyline points="1180,364 1240,364" fill="none" stroke="#8d8997" stroke-width="1"/>
<polyline points="1270,364 1330,364" fill="none" stroke="#8d8997" stroke-width="1"/>
<polyline points="1180,378 1240,378" fill="none" stroke="#8d8997" stroke-width="1"/>
<polyline points="1270,378 1330,378" fill="none" stroke="#8d8997" stroke-width="1"/>
<polyline points="1180,392 1240,392" fill="none" stroke="#8d8997" stroke-width="1"/>
<polyline points="1270,392 1330,392" fill="none" stroke="#8d8997" stroke-width="1"/>
<polyline points="1210,390 1210,285 1195,300" fill="none" stroke="#666275" stroke-width="2"/>
<polyline points="1300,285 1300,390 1315,375" fill="none" stroke="#666275" stroke-width="2"/>
<rect x="850" y="210" width="15" height="420" fill="#44494a" stroke="none" stroke-width="1"/>
<rect x="850" y="315" width="15" height="75" fill="#86afb9" stroke="none" stroke-width="1"/>
<rect x="850" y="435" width="15" height="75" fill="#86afb9" stroke="none" stroke-width="1"/>
<rect x="1495" y="210" width="15" height="420" fill="#44494a" stroke="none" stroke-width="1"/>
<rect x="1495" y="375" width="15" height="105" fill="#86afb9" stroke="none" stroke-width="1"/>
<rect x="850" y="210" width="660" height="15" fill="#44494a" stroke="none" stroke-width="1"/>
<rect x="925" y="210" width="90" height="15" fill="#86afb9" stroke="none" stroke-width="1"/>
<rect x="1405" y="210" width="60" height="15" fill="#86afb9" stroke="none" stroke-width="1"/>
<rect x="850" y="615" width="660" height="15" fill="#44494a" stroke="none" stroke-width="1"/>
<rect x="910" y="615" width="105" height="15" fill="#86afb9" stroke="none" stroke-width="1"/>
<rect x="1120" y="615" width="75" height="15" fill="#86afb9" stroke="none" stroke-width="1"/>
<rect x="1330" y="615" width="105" height="15" fill="#86afb9" stroke="none" stroke-width="1"/>
<rect x="1165" y="210" width="15" height="240" fill="#44494a" stroke="none" stroke-width="1"/>
<rect x="1330" y="210" width="15" height="240" fill="#44494a" stroke="none" stroke-width="1"/>
<rect x="1165" y="435" width="180" height="15" fill="#44494a" stroke="none" stroke-width="1"/>
<rect x="1240" y="435" width="60" height="15" fill="#faf8f3" stroke="none" stroke-width="1"/>
<polyline points="1240,442 1300,442" fill="none" stroke="#4f9478" stroke-width="2"/>
<rect x="1488" y="218" width="14" height="104" fill="#44494a" stroke="none" stroke-width="1"/>
<rect x="1398" y="308" width="104" height="14" fill="#44494a" stroke="none" stroke-width="1"/>
<rect x="1428" y="308" width="44" height="14" fill="#faf8f3" stroke="none" stroke-width="1"/>
<polyline points="1428,315 1472,315" fill="none" stroke="#4f9478" stroke-width="2"/>
<text x="1270" y="420" font-family="Arial, sans-serif" font-size="12" fill="#343c3d" text-anchor="middle" dominant-baseline="central">Landing</text>
<text x="1442" y="262" font-family="Arial, sans-serif" font-size="12" fill="#343c3d" text-anchor="middle" dominant-baseline="central">Bath</text>
<text x="1030" y="495" font-family="Arial, sans-serif" font-size="17" fill="#343c3d" text-anchor="middle" dominant-baseline="central">Cottage 01</text>
<text x="1030" y="515" font-family="Arial, sans-serif" font-size="17" fill="#343c3d" text-anchor="middle" dominant-baseline="central">Bedroom</text>
<text x="1420" y="495" font-family="Arial, sans-serif" font-size="13" fill="#343c3d" text-anchor="middle" dominant-baseline="central">Private dressing</text>
<text x="1420" y="511" font-family="Arial, sans-serif" font-size="13" fill="#343c3d" text-anchor="middle" dominant-baseline="central">Area</text>
<text x="955" y="585" font-family="Arial, sans-serif" font-size="17" fill="#343c3d" text-anchor="middle" dominant-baseline="central">Garden-view window</text>
<text x="40" y="720" font-family="Arial, sans-serif" font-size="18" fill="#343c3d" text-anchor="start" dominant-baseline="hanging">The private U-stair has a matching upper-floor opening. The two floors remain one accommodation.</text>
<text x="40" y="756" font-family="Arial, sans-serif" font-size="18" fill="#343c3d" text-anchor="start" dominant-baseline="hanging">The large front window at the west end overlooks the garden; the east edge remains aligned with services.</text>
<text x="40" y="804" font-family="Arial, sans-serif" font-size="16" fill="#77756d" text-anchor="start" dominant-baseline="hanging">Architectural proxy; actual LEGO connections and stair construction remain to be designed.</text></svg>