0 Cliffside Hotel — revised main building study
0 Physical assembly untested.
0 H00141 ELEMENT 4211486 MODULE foundation
1 71 180 -8 40 1 0 0 0 1 0 -0 0 1 4282.dat
0 H00142 ELEMENT 4211407 MODULE foundation
1 71 420 -8 60 1 0 0 0 1 0 -0 0 1 3035.dat
0 H00143 ELEMENT 4211486 MODULE foundation
1 71 520 -8 180 0 0 1 0 1 0 -1 0 0 4282.dat
0 H00144 ELEMENT 4211407 MODULE foundation
1 71 100 -8 100 1 0 0 0 1 0 -0 0 1 3035.dat
0 H00145 ELEMENT 4211486 MODULE foundation
1 71 200 -8 220 0 0 1 0 1 0 -1 0 0 4282.dat
0 H00146 ELEMENT 4211407 MODULE foundation
1 71 260 -8 140 0 0 1 0 1 0 -1 0 0 3035.dat
0 H00147 ELEMENT 4211486 MODULE foundation
1 71 320 -8 220 0 0 1 0 1 0 -1 0 0 4282.dat
0 H00148 ELEMENT 4211407 MODULE foundation
1 71 420 -8 140 1 0 0 0 1 0 -0 0 1 3035.dat
0 H00149 ELEMENT 4211407 MODULE foundation
1 71 100 -8 180 1 0 0 0 1 0 -0 0 1 3035.dat
0 H00150 ELEMENT 4211407 MODULE foundation
1 71 420 -8 220 1 0 0 0 1 0 -0 0 1 3035.dat
0 H00151 ELEMENT 4211061 MODULE foundation
1 72 100 -8 260 1 0 0 0 1 0 -0 0 1 3035.dat
0 H00152 ELEMENT 4211061 MODULE foundation
1 72 260 -8 300 0 0 1 0 1 0 -1 0 0 3035.dat
0 H00153 ELEMENT 4211061 MODULE foundation
1 72 420 -8 300 1 0 0 0 1 0 -0 0 1 3035.dat
0 H00154 ELEMENT 4211061 MODULE foundation
1 72 100 -8 340 1 0 0 0 1 0 -0 0 1 3035.dat
0 H00155 ELEMENT 4211462 MODULE foundation
1 71 440 -8 360 1 0 0 0 1 0 -0 0 1 3832.dat
0 H00156 ELEMENT 4211486 MODULE foundation
1 71 180 -16 40 1 0 0 0 1 0 -0 0 1 4282.dat
0 H00157 ELEMENT 4211486 MODULE foundation
1 71 360 -16 180 0 0 1 0 1 0 -1 0 0 4282.dat
0 H00158 ELEMENT 4211486 MODULE foundation
1 71 400 -16 180 0 0 1 0 1 0 -1 0 0 4282.dat
0 H00159 ELEMENT 4210796 MODULE foundation
1 72 440 -16 180 0 0 1 0 1 0 -1 0 0 4282.dat
0 H00160 ELEMENT 4211061 MODULE foundation
1 72 500 -16 100 0 0 1 0 1 0 -1 0 0 3035.dat
0 H00161 ELEMENT 4210796 MODULE foundation
1 72 180 -16 80 1 0 0 0 1 0 -0 0 1 4282.dat
0 H00162 ELEMENT 4211061 MODULE foundation
1 72 100 -16 140 1 0 0 0 1 0 -0 0 1 3035.dat
0 H00163 ELEMENT 4211061 MODULE foundation
1 72 260 -16 140 1 0 0 0 1 0 -0 0 1 3035.dat
0 H00164 ELEMENT 4210796 MODULE foundation
1 72 180 -16 200 1 0 0 0 1 0 -0 0 1 4282.dat
0 H00165 ELEMENT 4211061 MODULE foundation
1 72 500 -16 260 0 0 1 0 1 0 -1 0 0 3035.dat
0 H00166 ELEMENT 4210796 MODULE foundation
1 72 180 -16 240 1 0 0 0 1 0 -0 0 1 4282.dat
0 H00167 ELEMENT 4210796 MODULE foundation
1 72 180 -16 280 1 0 0 0 1 0 -0 0 1 4282.dat
0 H00168 ELEMENT 4211061 MODULE foundation
1 72 100 -16 340 1 0 0 0 1 0 -0 0 1 3035.dat
0 H00169 ELEMENT 4211061 MODULE foundation
1 72 260 -16 340 1 0 0 0 1 0 -0 0 1 3035.dat
0 H00170 ELEMENT 4211462 MODULE foundation
1 71 440 -16 360 1 0 0 0 1 0 -0 0 1 3832.dat
0 H00171 ELEMENT 4560183 MODULE foundation
1 71 340 -24 360 1 0 0 0 1 0 -0 0 1 87079.dat
0 STEP
0 H00172 ELEMENT 4162465 MODULE storey-1
1 19 70 -40 310 1 0 0 0 1 0 -0 0 1 3622.dat
0 H00173 ELEMENT 4162465 MODULE storey-1
1 19 210 -40 310 1 0 0 0 1 0 -0 0 1 3622.dat
0 H00174 ELEMENT 4162465 MODULE storey-1
1 19 350 -40 310 1 0 0 0 1 0 -0 0 1 3622.dat
0 H00175 ELEMENT 4162465 MODULE storey-1
1 19 490 -40 310 1 0 0 0 1 0 -0 0 1 3622.dat
0 H00176 ELEMENT 4114064 MODULE storey-1
1 19 60 -160 310 1 0 0 0 1 0 -0 0 1 2454.dat
0 H00177 ELEMENT 4112980 MODULE storey-1
1 19 210 -160 310 1 0 0 0 1 0 -0 0 1 2453a.dat
0 H00178 ELEMENT 4112980 MODULE storey-1
1 19 350 -160 310 1 0 0 0 1 0 -0 0 1 2453a.dat
0 H00179 ELEMENT 4114064 MODULE storey-1
1 19 500 -160 310 1 0 0 0 1 0 -0 0 1 2454.dat
0 H00180 ELEMENT 4295313 MODULE storey-1
1 19 200 -184 310 1 0 0 0 1 0 -0 0 1 2465.dat
0 H00181 ELEMENT 4159774 MODULE storey-1
1 19 440 -184 310 1 0 0 0 1 0 -0 0 1 3008.dat
0 H00182 ELEMENT 6055541 MODULE storey-1
1 15 90 -112 310 1 0 0 0 1 0 -0 0 1 14716.dat
0 H00183 ELEMENT 6055541 MODULE storey-1
1 15 190 -112 310 1 0 0 0 1 0 -0 0 1 14716.dat
0 H00184 ELEMENT 6106183 MODULE storey-1
1 15 140 -160 310 1 0 0 0 1 0 -0 0 1 15254.dat
0 H00185 ELEMENT 301001 MODULE storey-1
1 15 140 -40 290 1 0 0 0 1 0 -0 0 1 3010.dat
0 H00186 ELEMENT 300101 MODULE storey-1
1 15 140 -40 320 1 0 0 0 1 0 -0 0 1 3001.dat
0 H00187 ELEMENT 4530589 MODULE storey-1
1 0 140 -112 290 1 0 0 0 1 0 -0 0 1 60594.dat
0 H00188 ELEMENT 6514142 MODULE storey-1
1 47 140 -104 294 1 0 0 0 1 0 -0 0 1 86210.dat
0 H00189 ELEMENT 301026 MODULE storey-1
1 0 140 -136 290 1 0 0 0 1 0 -0 0 1 3010.dat
0 H00190 ELEMENT 301026 MODULE storey-1
1 0 140 -160 290 1 0 0 0 1 0 -0 0 1 3010.dat
0 H00191 ELEMENT 4550324 MODULE storey-1
1 19 140 -48 330 1 0 0 0 1 0 -0 0 1 2431.dat
0 H00192 ELEMENT 6055541 MODULE storey-1
1 15 230 -112 310 1 0 0 0 1 0 -0 0 1 14716.dat
0 H00193 ELEMENT 6055541 MODULE storey-1
1 15 330 -112 310 1 0 0 0 1 0 -0 0 1 14716.dat
0 H00194 ELEMENT 6106183 MODULE storey-1
1 15 280 -160 310 1 0 0 0 1 0 -0 0 1 15254.dat
0 H00195 ELEMENT 4277016 MODULE storey-1
1 70 260 -136 290 1 0 0 0 1 0 -0 0 1 2454.dat
0 H00196 ELEMENT 4277016 MODULE storey-1
1 70 300 -136 290 1 0 0 0 1 0 -0 0 1 2454.dat
0 H00197 ELEMENT 4211225 MODULE storey-1
1 70 280 -160 290 1 0 0 0 1 0 -0 0 1 3010.dat
0 H00198 ELEMENT 6122047 MODULE storey-1
1 19 280 -24 320 1 0 0 0 1 0 -0 0 1 87079.dat
0 H00199 ELEMENT 6055541 MODULE storey-1
1 15 370 -112 310 1 0 0 0 1 0 -0 0 1 14716.dat
0 H00200 ELEMENT 6055541 MODULE storey-1
1 15 470 -112 310 1 0 0 0 1 0 -0 0 1 14716.dat
0 H00201 ELEMENT 6106183 MODULE storey-1
1 15 420 -160 310 1 0 0 0 1 0 -0 0 1 15254.dat
0 H00202 ELEMENT 301001 MODULE storey-1
1 15 420 -40 290 1 0 0 0 1 0 -0 0 1 3010.dat
0 H00203 ELEMENT 300101 MODULE storey-1
1 15 420 -40 320 1 0 0 0 1 0 -0 0 1 3001.dat
0 H00204 ELEMENT 4530589 MODULE storey-1
1 0 420 -112 290 1 0 0 0 1 0 -0 0 1 60594.dat
0 H00205 ELEMENT 6514142 MODULE storey-1
1 47 420 -104 294 1 0 0 0 1 0 -0 0 1 86210.dat
0 H00206 ELEMENT 301026 MODULE storey-1
1 0 420 -136 290 1 0 0 0 1 0 -0 0 1 3010.dat
0 H00207 ELEMENT 301026 MODULE storey-1
1 0 420 -160 290 1 0 0 0 1 0 -0 0 1 3010.dat
0 H00208 ELEMENT 4550324 MODULE storey-1
1 19 420 -48 330 1 0 0 0 1 0 -0 0 1 2431.dat
0 H00209 ELEMENT 6075179 MODULE storey-1
1 19 50 -40 160 0 0 1 0 1 0 -1 0 0 6112.dat
0 H00210 ELEMENT 4113915 MODULE storey-1
1 19 50 -40 290 1 0 0 0 1 0 -0 0 1 3005.dat
0 H00211 ELEMENT 245301 MODULE storey-1
1 15 50 -160 50 1 0 0 0 1 0 -0 0 1 2453a.dat
0 H00212 ELEMENT 245401 MODULE storey-1
1 15 50 -160 280 0 0 1 0 1 0 -1 0 0 2454.dat
0 H00213 ELEMENT 6146877 MODULE storey-1
1 19 50 -112 100 0 0 1 0 1 0 -1 0 0 60581.dat
0 H00214 ELEMENT 4113916 MODULE storey-1
1 19 50 -136 100 0 0 1 0 1 0 -1 0 0 3010.dat
0 H00215 ELEMENT 4113916 MODULE storey-1
1 19 50 -160 100 0 0 1 0 1 0 -1 0 0 3010.dat
0 H00216 ELEMENT 6055541 MODULE storey-1
1 15 50 -112 150 1 0 0 0 1 0 -0 0 1 14716.dat
0 H00217 ELEMENT 6055541 MODULE storey-1
1 15 50 -112 250 1 0 0 0 1 0 -0 0 1 14716.dat
0 H00218 ELEMENT 6106183 MODULE storey-1
1 15 50 -160 200 0 0 1 0 1 0 -1 0 0 15254.dat
0 H00219 ELEMENT 6075179 MODULE storey-1
1 19 50 -184 160 0 0 1 0 1 0 -1 0 0 6112.dat
0 H00220 ELEMENT 4113915 MODULE storey-1
1 19 50 -184 290 1 0 0 0 1 0 -0 0 1 3005.dat
0 H00221 ELEMENT 301001 MODULE storey-1
1 15 70 -40 200 0 0 1 0 1 0 -1 0 0 3010.dat
0 H00222 ELEMENT 4530590 MODULE storey-1
1 15 70 -112 200 0 0 1 0 1 0 -1 0 0 60594.dat
0 H00223 ELEMENT 301026 MODULE storey-1
1 0 70 -136 200 0 0 1 0 1 0 -1 0 0 3010.dat
0 H00224 ELEMENT 301026 MODULE storey-1
1 0 70 -160 200 0 0 1 0 1 0 -1 0 0 3010.dat
0 H00225 ELEMENT 6075179 MODULE storey-1
1 19 510 -40 160 0 0 1 0 1 0 -1 0 0 6112.dat
0 H00226 ELEMENT 4113915 MODULE storey-1
1 19 510 -40 290 1 0 0 0 1 0 -0 0 1 3005.dat
0 H00227 ELEMENT 245301 MODULE storey-1
1 15 510 -160 50 1 0 0 0 1 0 -0 0 1 2453a.dat
0 H00228 ELEMENT 245401 MODULE storey-1
1 15 510 -160 280 0 0 1 0 1 0 -1 0 0 2454.dat
0 H00229 ELEMENT 6146877 MODULE storey-1
1 19 510 -112 100 0 0 1 0 1 0 -1 0 0 60581.dat
0 H00230 ELEMENT 4113916 MODULE storey-1
1 19 510 -136 100 0 0 1 0 1 0 -1 0 0 3010.dat
0 H00231 ELEMENT 4113916 MODULE storey-1
1 19 510 -160 100 0 0 1 0 1 0 -1 0 0 3010.dat
0 H00232 ELEMENT 6055541 MODULE storey-1
1 15 510 -112 150 1 0 0 0 1 0 -0 0 1 14716.dat
0 H00233 ELEMENT 6055541 MODULE storey-1
1 15 510 -112 250 1 0 0 0 1 0 -0 0 1 14716.dat
0 H00234 ELEMENT 6106183 MODULE storey-1
1 15 510 -160 200 0 0 1 0 1 0 -1 0 0 15254.dat
0 H00235 ELEMENT 6075179 MODULE storey-1
1 19 510 -184 160 0 0 1 0 1 0 -1 0 0 6112.dat
0 H00236 ELEMENT 4113915 MODULE storey-1
1 19 510 -184 290 1 0 0 0 1 0 -0 0 1 3005.dat
0 H00237 ELEMENT 301001 MODULE storey-1
1 15 490 -40 200 0 0 1 0 1 0 -1 0 0 3010.dat
0 H00238 ELEMENT 4530590 MODULE storey-1
1 15 490 -112 200 0 0 1 0 1 0 -1 0 0 60594.dat
0 H00239 ELEMENT 301026 MODULE storey-1
1 0 490 -136 200 0 0 1 0 1 0 -1 0 0 3010.dat
0 H00240 ELEMENT 301026 MODULE storey-1
1 0 490 -160 200 0 0 1 0 1 0 -1 0 0 3010.dat
0 H00241 ELEMENT 246501 MODULE storey-1
1 15 220 -40 50 1 0 0 0 1 0 -0 0 1 2465.dat
0 H00242 ELEMENT 245401 MODULE storey-1
1 15 400 -136 50 1 0 0 0 1 0 -0 0 1 2454.dat
0 H00243 ELEMENT 245401 MODULE storey-1
1 15 440 -136 50 1 0 0 0 1 0 -0 0 1 2454.dat
0 H00244 ELEMENT 245401 MODULE storey-1
1 15 480 -136 50 1 0 0 0 1 0 -0 0 1 2454.dat
0 H00245 ELEMENT 246501 MODULE storey-1
1 15 220 -64 50 1 0 0 0 1 0 -0 0 1 2465.dat
0 H00246 ELEMENT 246501 MODULE storey-1
1 15 220 -88 50 1 0 0 0 1 0 -0 0 1 2465.dat
0 H00247 ELEMENT 246501 MODULE storey-1
1 15 220 -112 50 1 0 0 0 1 0 -0 0 1 2465.dat
0 H00248 ELEMENT 246501 MODULE storey-1
1 15 220 -136 50 1 0 0 0 1 0 -0 0 1 2465.dat
0 H00249 ELEMENT 246501 MODULE storey-1
1 15 220 -160 50 1 0 0 0 1 0 -0 0 1 2465.dat
0 H00250 ELEMENT 300901 MODULE storey-1
1 15 440 -160 50 1 0 0 0 1 0 -0 0 1 3009.dat
0 H00251 ELEMENT 246501 MODULE storey-1
1 15 220 -184 50 1 0 0 0 1 0 -0 0 1 2465.dat
0 H00252 ELEMENT 300901 MODULE storey-1
1 15 440 -184 50 1 0 0 0 1 0 -0 0 1 3009.dat
0 STEP
0 H00253 ELEMENT 4119227 MODULE floor-and-cornice-1
1 15 200 -192 60 1 0 0 0 1 0 -0 0 1 4282.dat
0 H00254 ELEMENT 303501 MODULE floor-and-cornice-1
1 15 440 -192 80 1 0 0 0 1 0 -0 0 1 3035.dat
0 H00255 ELEMENT 4119227 MODULE floor-and-cornice-1
1 15 200 -192 100 1 0 0 0 1 0 -0 0 1 4282.dat
0 H00256 ELEMENT 4119227 MODULE floor-and-cornice-1
1 15 200 -192 140 1 0 0 0 1 0 -0 0 1 4282.dat
0 H00257 ELEMENT 303501 MODULE floor-and-cornice-1
1 15 440 -192 160 1 0 0 0 1 0 -0 0 1 3035.dat
0 H00258 ELEMENT 4119227 MODULE floor-and-cornice-1
1 15 200 -192 180 1 0 0 0 1 0 -0 0 1 4282.dat
0 H00259 ELEMENT 4119227 MODULE floor-and-cornice-1
1 15 200 -192 220 1 0 0 0 1 0 -0 0 1 4282.dat
0 H00260 ELEMENT 303501 MODULE floor-and-cornice-1
1 15 440 -192 240 1 0 0 0 1 0 -0 0 1 3035.dat
0 H00261 ELEMENT 4119227 MODULE floor-and-cornice-1
1 15 200 -192 260 1 0 0 0 1 0 -0 0 1 4282.dat
0 H00262 ELEMENT 4119227 MODULE floor-and-cornice-1
1 15 200 -192 300 1 0 0 0 1 0 -0 0 1 4282.dat
0 H00263 ELEMENT 303401 MODULE floor-and-cornice-1
1 15 440 -192 300 1 0 0 0 1 0 -0 0 1 3034.dat
0 H00264 ELEMENT 379501 MODULE floor-and-cornice-1
1 15 140 -192 340 1 0 0 0 1 0 -0 0 1 3795.dat
0 H00265 ELEMENT 379501 MODULE floor-and-cornice-1
1 15 280 -192 340 1 0 0 0 1 0 -0 0 1 3795.dat
0 H00266 ELEMENT 366601 MODULE floor-and-cornice-1
1 15 140 -192 370 1 0 0 0 1 0 -0 0 1 3666.dat
0 H00267 ELEMENT 366601 MODULE floor-and-cornice-1
1 15 280 -192 370 1 0 0 0 1 0 -0 0 1 3666.dat
0 H00268 ELEMENT 303201 MODULE floor-and-cornice-1
1 15 140 -200 340 1 0 0 0 1 0 -0 0 1 3032.dat
0 H00269 ELEMENT 303201 MODULE floor-and-cornice-1
1 15 280 -200 340 1 0 0 0 1 0 -0 0 1 3032.dat
0 H00270 ELEMENT 303501 MODULE floor-and-cornice-1
1 15 120 -200 80 1 0 0 0 1 0 -0 0 1 3035.dat
0 H00271 ELEMENT 303501 MODULE floor-and-cornice-1
1 15 280 -200 80 1 0 0 0 1 0 -0 0 1 3035.dat
0 H00272 ELEMENT 303501 MODULE floor-and-cornice-1
1 15 440 -200 80 1 0 0 0 1 0 -0 0 1 3035.dat
0 H00273 ELEMENT 4119227 MODULE floor-and-cornice-1
1 15 200 -200 140 1 0 0 0 1 0 -0 0 1 4282.dat
0 H00274 ELEMENT 303201 MODULE floor-and-cornice-1
1 15 420 -200 160 1 0 0 0 1 0 -0 0 1 3032.dat
0 H00275 ELEMENT 383201 MODULE floor-and-cornice-1
1 15 500 -200 220 0 0 1 0 1 0 -1 0 0 3832.dat
0 H00276 ELEMENT 4119227 MODULE floor-and-cornice-1
1 15 200 -200 180 1 0 0 0 1 0 -0 0 1 4282.dat
0 H00277 ELEMENT 244501 MODULE floor-and-cornice-1
1 15 160 -200 220 1 0 0 0 1 0 -0 0 1 2445.dat
0 H00278 ELEMENT 303201 MODULE floor-and-cornice-1
1 15 340 -200 240 1 0 0 0 1 0 -0 0 1 3032.dat
0 H00279 ELEMENT 303201 MODULE floor-and-cornice-1
1 15 440 -200 260 0 0 1 0 1 0 -1 0 0 3032.dat
0 H00280 ELEMENT 244501 MODULE floor-and-cornice-1
1 15 160 -200 260 1 0 0 0 1 0 -0 0 1 2445.dat
0 H00281 ELEMENT 4514842 MODULE floor-and-cornice-1
1 15 160 -200 290 1 0 0 0 1 0 -0 0 1 60479.dat
0 H00282 ELEMENT 366601 MODULE floor-and-cornice-1
1 15 340 -200 290 1 0 0 0 1 0 -0 0 1 3666.dat
0 H00283 ELEMENT 302301 MODULE floor-and-cornice-1
1 15 60 -200 310 1 0 0 0 1 0 -0 0 1 3023b.dat
0 H00284 ELEMENT 302401 MODULE floor-and-cornice-1
1 15 210 -200 310 1 0 0 0 1 0 -0 0 1 3024.dat
0 H00285 ELEMENT 362301 MODULE floor-and-cornice-1
1 15 370 -200 310 1 0 0 0 1 0 -0 0 1 3623.dat
0 STEP
0 H00286 ELEMENT 243226 MODULE balconies-1
1 0 120 -232 370 1 0 0 0 1 0 -0 0 1 2432.dat
0 H00287 ELEMENT 243226 MODULE balconies-1
1 0 160 -232 370 1 0 0 0 1 0 -0 0 1 2432.dat
0 H00288 ELEMENT 306226 MODULE balconies-1
1 0 90 -224 370 1 0 0 0 1 0 -0 0 1 3062b.dat
0 H00289 ELEMENT 307026 MODULE balconies-1
1 0 90 -232 370 1 0 0 0 1 0 -0 0 1 3070b.dat
0 H00290 ELEMENT 306226 MODULE balconies-1
1 0 190 -224 370 1 0 0 0 1 0 -0 0 1 3062b.dat
0 H00291 ELEMENT 307026 MODULE balconies-1
1 0 190 -232 370 1 0 0 0 1 0 -0 0 1 3070b.dat
0 H00292 ELEMENT 4211183 MODULE balconies-1
1 70 90 -224 350 1 0 0 0 1 0 -0 0 1 3062b.dat
0 H00293 ELEMENT 6209673 MODULE balconies-1
1 31 90 -248 350 1 0 0 0 1 0 -0 0 1 3062b.dat
0 H00294 ELEMENT 6229130 MODULE balconies-1
1 2 90 -256 350 1 0 0 0 1 0 -0 0 1 32607.dat
0 H00295 ELEMENT 6299813 MODULE balconies-1
1 14 90 -264 350 1 0 0 0 1 0 -0 0 1 24866.dat
0 H00296 ELEMENT 4211183 MODULE balconies-1
1 70 190 -224 350 1 0 0 0 1 0 -0 0 1 3062b.dat
0 H00297 ELEMENT 6209673 MODULE balconies-1
1 31 190 -248 350 1 0 0 0 1 0 -0 0 1 3062b.dat
0 H00298 ELEMENT 6229130 MODULE balconies-1
1 2 190 -256 350 -1 0 0 0 1 0 -0 0 -1 32607.dat
0 H00299 ELEMENT 6299813 MODULE balconies-1
1 14 190 -264 350 1 0 0 0 1 0 -0 0 1 24866.dat
0 H00300 ELEMENT 243226 MODULE balconies-1
1 0 260 -232 370 1 0 0 0 1 0 -0 0 1 2432.dat
0 H00301 ELEMENT 243226 MODULE balconies-1
1 0 300 -232 370 1 0 0 0 1 0 -0 0 1 2432.dat
0 H00302 ELEMENT 306226 MODULE balconies-1
1 0 230 -224 370 1 0 0 0 1 0 -0 0 1 3062b.dat
0 H00303 ELEMENT 307026 MODULE balconies-1
1 0 230 -232 370 1 0 0 0 1 0 -0 0 1 3070b.dat
0 H00304 ELEMENT 306226 MODULE balconies-1
1 0 330 -224 370 1 0 0 0 1 0 -0 0 1 3062b.dat
0 H00305 ELEMENT 307026 MODULE balconies-1
1 0 330 -232 370 1 0 0 0 1 0 -0 0 1 3070b.dat
0 H00306 ELEMENT 4211183 MODULE balconies-1
1 70 230 -224 350 1 0 0 0 1 0 -0 0 1 3062b.dat
0 H00307 ELEMENT 6209673 MODULE balconies-1
1 31 230 -248 350 1 0 0 0 1 0 -0 0 1 3062b.dat
0 H00308 ELEMENT 6229130 MODULE balconies-1
1 2 230 -256 350 1 0 0 0 1 0 -0 0 1 32607.dat
0 H00309 ELEMENT 6299813 MODULE balconies-1
1 14 230 -264 350 1 0 0 0 1 0 -0 0 1 24866.dat
0 H00310 ELEMENT 4211183 MODULE balconies-1
1 70 330 -224 350 1 0 0 0 1 0 -0 0 1 3062b.dat
0 H00311 ELEMENT 6209673 MODULE balconies-1
1 31 330 -248 350 1 0 0 0 1 0 -0 0 1 3062b.dat
0 H00312 ELEMENT 6229130 MODULE balconies-1
1 2 330 -256 350 -1 0 0 0 1 0 -0 0 -1 32607.dat
0 H00313 ELEMENT 6299813 MODULE balconies-1
1 14 330 -264 350 1 0 0 0 1 0 -0 0 1 24866.dat
0 STEP
0 H00314 ELEMENT 4162465 MODULE storey-2
1 19 70 -224 310 1 0 0 0 1 0 -0 0 1 3622.dat
0 H00315 ELEMENT 4162465 MODULE storey-2
1 19 210 -224 310 1 0 0 0 1 0 -0 0 1 3622.dat
0 H00316 ELEMENT 4162465 MODULE storey-2
1 19 350 -224 310 1 0 0 0 1 0 -0 0 1 3622.dat
0 H00317 ELEMENT 4162465 MODULE storey-2
1 19 490 -224 310 1 0 0 0 1 0 -0 0 1 3622.dat
0 H00318 ELEMENT 4579260 MODULE storey-2
1 19 70 -296 310 -1 0 0 0 1 0 -0 0 -1 87087.dat
0 H00319 ELEMENT 371028 MODULE storey-2
1 2 70 -276 328 0 0 1 -1 0 0 0 -1 0 3710.dat
0 H00320 ELEMENT 4579260 MODULE storey-2
1 19 210 -296 310 -1 0 0 0 1 0 -0 0 -1 87087.dat
0 H00321 ELEMENT 371028 MODULE storey-2
1 2 210 -276 328 0 0 1 -1 0 0 0 -1 0 3710.dat
0 H00322 ELEMENT 4579260 MODULE storey-2
1 19 350 -296 310 -1 0 0 0 1 0 -0 0 -1 87087.dat
0 H00323 ELEMENT 371028 MODULE storey-2
1 2 350 -276 328 0 0 1 -1 0 0 0 -1 0 3710.dat
0 H00324 ELEMENT 4579260 MODULE storey-2
1 19 490 -296 310 -1 0 0 0 1 0 -0 0 -1 87087.dat
0 H00325 ELEMENT 371028 MODULE storey-2
1 2 490 -276 328 0 0 1 -1 0 0 0 -1 0 3710.dat
0 H00326 ELEMENT 4112980 MODULE storey-2
1 19 50 -344 310 1 0 0 0 1 0 -0 0 1 2453a.dat
0 H00327 ELEMENT 4113915 MODULE storey-2
1 19 70 -248 310 1 0 0 0 1 0 -0 0 1 3005.dat
0 H00328 ELEMENT 4113915 MODULE storey-2
1 19 210 -248 310 1 0 0 0 1 0 -0 0 1 3005.dat
0 H00329 ELEMENT 4113915 MODULE storey-2
1 19 350 -248 310 1 0 0 0 1 0 -0 0 1 3005.dat
0 H00330 ELEMENT 4109995 MODULE storey-2
1 19 500 -248 310 1 0 0 0 1 0 -0 0 1 3004.dat
0 H00331 ELEMENT 4113915 MODULE storey-2
1 19 70 -272 310 1 0 0 0 1 0 -0 0 1 3005.dat
0 H00332 ELEMENT 4113915 MODULE storey-2
1 19 210 -272 310 1 0 0 0 1 0 -0 0 1 3005.dat
0 H00333 ELEMENT 4113915 MODULE storey-2
1 19 350 -272 310 1 0 0 0 1 0 -0 0 1 3005.dat
0 H00334 ELEMENT 4109995 MODULE storey-2
1 19 500 -272 310 1 0 0 0 1 0 -0 0 1 3004.dat
0 H00335 ELEMENT 6057517 MODULE storey-2
1 19 510 -344 310 1 0 0 0 1 0 -0 0 1 14716.dat
0 H00336 ELEMENT 4113915 MODULE storey-2
1 19 70 -320 310 1 0 0 0 1 0 -0 0 1 3005.dat
0 H00337 ELEMENT 4113915 MODULE storey-2
1 19 210 -320 310 1 0 0 0 1 0 -0 0 1 3005.dat
0 H00338 ELEMENT 4113915 MODULE storey-2
1 19 350 -320 310 1 0 0 0 1 0 -0 0 1 3005.dat
0 H00339 ELEMENT 4113915 MODULE storey-2
1 19 490 -320 310 1 0 0 0 1 0 -0 0 1 3005.dat
0 H00340 ELEMENT 4113915 MODULE storey-2
1 19 70 -344 310 1 0 0 0 1 0 -0 0 1 3005.dat
0 H00341 ELEMENT 4113915 MODULE storey-2
1 19 210 -344 310 1 0 0 0 1 0 -0 0 1 3005.dat
0 H00342 ELEMENT 4113915 MODULE storey-2
1 19 350 -344 310 1 0 0 0 1 0 -0 0 1 3005.dat
0 H00343 ELEMENT 4159553 MODULE storey-2
1 19 490 -328 310 1 0 0 0 1 0 -0 0 1 3024.dat
0 H00344 ELEMENT 4159553 MODULE storey-2
1 19 490 -336 310 1 0 0 0 1 0 -0 0 1 3024.dat
0 H00345 ELEMENT 4159553 MODULE storey-2
1 19 490 -344 310 1 0 0 0 1 0 -0 0 1 3024.dat
0 H00346 ELEMENT 6075179 MODULE storey-2
1 19 160 -368 310 1 0 0 0 1 0 -0 0 1 6112.dat
0 H00347 ELEMENT 6075179 MODULE storey-2
1 19 400 -368 310 1 0 0 0 1 0 -0 0 1 6112.dat
0 H00348 ELEMENT 6055541 MODULE storey-2
1 15 90 -296 310 1 0 0 0 1 0 -0 0 1 14716.dat
0 H00349 ELEMENT 6055541 MODULE storey-2
1 15 190 -296 310 1 0 0 0 1 0 -0 0 1 14716.dat
0 H00350 ELEMENT 6106183 MODULE storey-2
1 15 140 -344 310 1 0 0 0 1 0 -0 0 1 15254.dat
0 H00351 ELEMENT 301001 MODULE storey-2
1 15 140 -224 290 1 0 0 0 1 0 -0 0 1 3010.dat
0 H00352 ELEMENT 300101 MODULE storey-2
1 15 140 -224 320 1 0 0 0 1 0 -0 0 1 3001.dat
0 H00353 ELEMENT 4530589 MODULE storey-2
1 0 140 -296 290 1 0 0 0 1 0 -0 0 1 60594.dat
0 H00354 ELEMENT 6514142 MODULE storey-2
1 47 140 -288 294 1 0 0 0 1 0 -0 0 1 86210.dat
0 H00355 ELEMENT 301026 MODULE storey-2
1 0 140 -320 290 1 0 0 0 1 0 -0 0 1 3010.dat
0 H00356 ELEMENT 301026 MODULE storey-2
1 0 140 -344 290 1 0 0 0 1 0 -0 0 1 3010.dat
0 H00357 ELEMENT 4550324 MODULE storey-2
1 19 140 -232 330 1 0 0 0 1 0 -0 0 1 2431.dat
0 H00358 ELEMENT 6055541 MODULE storey-2
1 15 230 -296 310 1 0 0 0 1 0 -0 0 1 14716.dat
0 H00359 ELEMENT 6055541 MODULE storey-2
1 15 330 -296 310 1 0 0 0 1 0 -0 0 1 14716.dat
0 H00360 ELEMENT 6106183 MODULE storey-2
1 15 280 -344 310 1 0 0 0 1 0 -0 0 1 15254.dat
0 H00361 ELEMENT 301001 MODULE storey-2
1 15 280 -224 290 1 0 0 0 1 0 -0 0 1 3010.dat
0 H00362 ELEMENT 300101 MODULE storey-2
1 15 280 -224 320 1 0 0 0 1 0 -0 0 1 3001.dat
0 H00363 ELEMENT 4530589 MODULE storey-2
1 0 280 -296 290 1 0 0 0 1 0 -0 0 1 60594.dat
0 H00364 ELEMENT 6514142 MODULE storey-2
1 47 280 -288 294 1 0 0 0 1 0 -0 0 1 86210.dat
0 H00365 ELEMENT 301026 MODULE storey-2
1 0 280 -320 290 1 0 0 0 1 0 -0 0 1 3010.dat
0 H00366 ELEMENT 301026 MODULE storey-2
1 0 280 -344 290 1 0 0 0 1 0 -0 0 1 3010.dat
0 H00367 ELEMENT 4550324 MODULE storey-2
1 19 280 -232 330 1 0 0 0 1 0 -0 0 1 2431.dat
0 H00368 ELEMENT 6055541 MODULE storey-2
1 15 370 -296 310 1 0 0 0 1 0 -0 0 1 14716.dat
0 H00369 ELEMENT 6055541 MODULE storey-2
1 15 470 -296 310 1 0 0 0 1 0 -0 0 1 14716.dat
0 H00370 ELEMENT 6106183 MODULE storey-2
1 15 420 -344 310 1 0 0 0 1 0 -0 0 1 15254.dat
0 H00371 ELEMENT 301001 MODULE storey-2
1 15 420 -224 290 1 0 0 0 1 0 -0 0 1 3010.dat
0 H00372 ELEMENT 300101 MODULE storey-2
1 15 420 -224 320 1 0 0 0 1 0 -0 0 1 3001.dat
0 H00373 ELEMENT 4530589 MODULE storey-2
1 0 420 -296 290 1 0 0 0 1 0 -0 0 1 60594.dat
0 H00374 ELEMENT 6514142 MODULE storey-2
1 47 420 -288 294 1 0 0 0 1 0 -0 0 1 86210.dat
0 H00375 ELEMENT 301026 MODULE storey-2
1 0 420 -320 290 1 0 0 0 1 0 -0 0 1 3010.dat
0 H00376 ELEMENT 301026 MODULE storey-2
1 0 420 -344 290 1 0 0 0 1 0 -0 0 1 3010.dat
0 H00377 ELEMENT 4550324 MODULE storey-2
1 19 420 -232 330 1 0 0 0 1 0 -0 0 1 2431.dat
0 H00378 ELEMENT 6075179 MODULE storey-2
1 19 50 -224 160 0 0 1 0 1 0 -1 0 0 6112.dat
0 H00379 ELEMENT 4159553 MODULE storey-2
1 19 50 -208 290 1 0 0 0 1 0 -0 0 1 3024.dat
0 H00380 ELEMENT 4159553 MODULE storey-2
1 19 50 -216 290 1 0 0 0 1 0 -0 0 1 3024.dat
0 H00381 ELEMENT 4159553 MODULE storey-2
1 19 50 -224 290 1 0 0 0 1 0 -0 0 1 3024.dat
0 H00382 ELEMENT 245301 MODULE storey-2
1 15 50 -344 50 1 0 0 0 1 0 -0 0 1 2453a.dat
0 H00383 ELEMENT 245401 MODULE storey-2
1 15 50 -344 280 0 0 1 0 1 0 -1 0 0 2454.dat
0 H00384 ELEMENT 6146877 MODULE storey-2
1 19 50 -296 100 0 0 1 0 1 0 -1 0 0 60581.dat
0 H00385 ELEMENT 4113916 MODULE storey-2
1 19 50 -320 100 0 0 1 0 1 0 -1 0 0 3010.dat
0 H00386 ELEMENT 4113916 MODULE storey-2
1 19 50 -344 100 0 0 1 0 1 0 -1 0 0 3010.dat
0 H00387 ELEMENT 6055541 MODULE storey-2
1 15 50 -296 150 1 0 0 0 1 0 -0 0 1 14716.dat
0 H00388 ELEMENT 6055541 MODULE storey-2
1 15 50 -296 250 1 0 0 0 1 0 -0 0 1 14716.dat
0 H00389 ELEMENT 6106183 MODULE storey-2
1 15 50 -344 200 0 0 1 0 1 0 -1 0 0 15254.dat
0 H00390 ELEMENT 4166138 MODULE storey-2
1 19 50 -368 140 0 0 1 0 1 0 -1 0 0 6111.dat
0 H00391 ELEMENT 4162465 MODULE storey-2
1 19 50 -368 270 0 0 1 0 1 0 -1 0 0 3622.dat
0 H00392 ELEMENT 301001 MODULE storey-2
1 15 70 -224 200 0 0 1 0 1 0 -1 0 0 3010.dat
0 H00393 ELEMENT 4530590 MODULE storey-2
1 15 70 -296 200 0 0 1 0 1 0 -1 0 0 60594.dat
0 H00394 ELEMENT 6514142 MODULE storey-2
1 47 74 -288 200 0 0 1 0 1 0 -1 0 0 86210.dat
0 H00395 ELEMENT 301026 MODULE storey-2
1 0 70 -320 200 0 0 1 0 1 0 -1 0 0 3010.dat
0 H00396 ELEMENT 301026 MODULE storey-2
1 0 70 -344 200 0 0 1 0 1 0 -1 0 0 3010.dat
0 H00397 ELEMENT 4166138 MODULE storey-2
1 19 510 -224 140 0 0 1 0 1 0 -1 0 0 6111.dat
0 H00398 ELEMENT 4162465 MODULE storey-2
1 19 510 -224 270 0 0 1 0 1 0 -1 0 0 3622.dat
0 H00399 ELEMENT 245301 MODULE storey-2
1 15 510 -344 50 1 0 0 0 1 0 -0 0 1 2453a.dat
0 H00400 ELEMENT 245401 MODULE storey-2
1 15 510 -344 280 0 0 1 0 1 0 -1 0 0 2454.dat
0 H00401 ELEMENT 6146877 MODULE storey-2
1 19 510 -296 100 0 0 1 0 1 0 -1 0 0 60581.dat
0 H00402 ELEMENT 4113916 MODULE storey-2
1 19 510 -320 100 0 0 1 0 1 0 -1 0 0 3010.dat
0 H00403 ELEMENT 4113916 MODULE storey-2
1 19 510 -344 100 0 0 1 0 1 0 -1 0 0 3010.dat
0 H00404 ELEMENT 6055541 MODULE storey-2
1 15 510 -296 150 1 0 0 0 1 0 -0 0 1 14716.dat
0 H00405 ELEMENT 6055541 MODULE storey-2
1 15 510 -296 250 1 0 0 0 1 0 -0 0 1 14716.dat
0 H00406 ELEMENT 6106183 MODULE storey-2
1 15 510 -344 200 0 0 1 0 1 0 -1 0 0 15254.dat
0 H00407 ELEMENT 4159774 MODULE storey-2
1 19 510 -368 120 0 0 1 0 1 0 -1 0 0 3008.dat
0 H00408 ELEMENT 4113916 MODULE storey-2
1 19 510 -368 240 0 0 1 0 1 0 -1 0 0 3010.dat
0 H00409 ELEMENT 4159553 MODULE storey-2
1 19 510 -352 290 1 0 0 0 1 0 -0 0 1 3024.dat
0 H00410 ELEMENT 4159553 MODULE storey-2
1 19 510 -360 290 1 0 0 0 1 0 -0 0 1 3024.dat
0 H00411 ELEMENT 4159553 MODULE storey-2
1 19 510 -368 290 1 0 0 0 1 0 -0 0 1 3024.dat
0 H00412 ELEMENT 301001 MODULE storey-2
1 15 490 -224 200 0 0 1 0 1 0 -1 0 0 3010.dat
0 H00413 ELEMENT 4530590 MODULE storey-2
1 15 490 -296 200 0 0 1 0 1 0 -1 0 0 60594.dat
0 H00414 ELEMENT 6514142 MODULE storey-2
1 47 494 -288 200 0 0 1 0 1 0 -1 0 0 86210.dat
0 H00415 ELEMENT 301026 MODULE storey-2
1 0 490 -320 200 0 0 1 0 1 0 -1 0 0 3010.dat
0 H00416 ELEMENT 362226 MODULE storey-2
1 0 490 -344 190 0 0 1 0 1 0 -1 0 0 3622.dat
0 H00417 ELEMENT 300526 MODULE storey-2
1 0 490 -344 230 1 0 0 0 1 0 -0 0 1 3005.dat
0 H00418 ELEMENT 246501 MODULE storey-2
1 15 220 -224 50 1 0 0 0 1 0 -0 0 1 2465.dat
0 H00419 ELEMENT 245401 MODULE storey-2
1 15 400 -320 50 1 0 0 0 1 0 -0 0 1 2454.dat
0 H00420 ELEMENT 245401 MODULE storey-2
1 15 440 -320 50 1 0 0 0 1 0 -0 0 1 2454.dat
0 H00421 ELEMENT 245401 MODULE storey-2
1 15 480 -320 50 1 0 0 0 1 0 -0 0 1 2454.dat
0 H00422 ELEMENT 246501 MODULE storey-2
1 15 220 -248 50 1 0 0 0 1 0 -0 0 1 2465.dat
0 H00423 ELEMENT 246501 MODULE storey-2
1 15 220 -272 50 1 0 0 0 1 0 -0 0 1 2465.dat
0 H00424 ELEMENT 246501 MODULE storey-2
1 15 220 -296 50 1 0 0 0 1 0 -0 0 1 2465.dat
0 H00425 ELEMENT 611201 MODULE storey-2
1 15 180 -320 50 1 0 0 0 1 0 -0 0 1 6112.dat
0 H00426 ELEMENT 301001 MODULE storey-2
1 15 340 -320 50 1 0 0 0 1 0 -0 0 1 3010.dat
0 H00427 ELEMENT 611201 MODULE storey-2
1 15 180 -344 50 1 0 0 0 1 0 -0 0 1 6112.dat
0 H00428 ELEMENT 611101 MODULE storey-2
1 15 400 -344 50 1 0 0 0 1 0 -0 0 1 6111.dat
0 H00429 ELEMENT 611201 MODULE storey-2
1 15 180 -368 50 1 0 0 0 1 0 -0 0 1 6112.dat
0 H00430 ELEMENT 611101 MODULE storey-2
1 15 400 -368 50 1 0 0 0 1 0 -0 0 1 6111.dat
0 STEP
0 H00431 ELEMENT 244501 MODULE floor-and-cornice-2
1 15 160 -376 60 1 0 0 0 1 0 -0 0 1 2445.dat
0 H00432 ELEMENT 244501 MODULE floor-and-cornice-2
1 15 400 -376 60 1 0 0 0 1 0 -0 0 1 2445.dat
0 H00433 ELEMENT 244501 MODULE floor-and-cornice-2
1 15 160 -376 100 1 0 0 0 1 0 -0 0 1 2445.dat
0 H00434 ELEMENT 244501 MODULE floor-and-cornice-2
1 15 400 -376 100 1 0 0 0 1 0 -0 0 1 2445.dat
0 H00435 ELEMENT 244501 MODULE floor-and-cornice-2
1 15 160 -376 140 1 0 0 0 1 0 -0 0 1 2445.dat
0 H00436 ELEMENT 244501 MODULE floor-and-cornice-2
1 15 400 -376 140 1 0 0 0 1 0 -0 0 1 2445.dat
0 H00437 ELEMENT 244501 MODULE floor-and-cornice-2
1 15 160 -376 180 1 0 0 0 1 0 -0 0 1 2445.dat
0 H00438 ELEMENT 244501 MODULE floor-and-cornice-2
1 15 400 -376 180 1 0 0 0 1 0 -0 0 1 2445.dat
0 H00439 ELEMENT 244501 MODULE floor-and-cornice-2
1 15 160 -376 220 1 0 0 0 1 0 -0 0 1 2445.dat
0 H00440 ELEMENT 244501 MODULE floor-and-cornice-2
1 15 400 -376 220 1 0 0 0 1 0 -0 0 1 2445.dat
0 H00441 ELEMENT 244501 MODULE floor-and-cornice-2
1 15 160 -376 260 1 0 0 0 1 0 -0 0 1 2445.dat
0 H00442 ELEMENT 244501 MODULE floor-and-cornice-2
1 15 400 -376 260 1 0 0 0 1 0 -0 0 1 2445.dat
0 H00443 ELEMENT 244501 MODULE floor-and-cornice-2
1 15 160 -376 300 1 0 0 0 1 0 -0 0 1 2445.dat
0 H00444 ELEMENT 244501 MODULE floor-and-cornice-2
1 15 400 -376 300 1 0 0 0 1 0 -0 0 1 2445.dat
0 H00445 ELEMENT 379501 MODULE floor-and-cornice-2
1 15 140 -376 340 1 0 0 0 1 0 -0 0 1 3795.dat
0 H00446 ELEMENT 366601 MODULE floor-and-cornice-2
1 15 140 -376 370 1 0 0 0 1 0 -0 0 1 3666.dat
0 H00447 ELEMENT 303201 MODULE floor-and-cornice-2
1 15 140 -384 340 1 0 0 0 1 0 -0 0 1 3032.dat
0 H00448 ELEMENT 302101 MODULE floor-and-cornice-2
1 15 260 -384 330 0 0 1 0 1 0 -1 0 0 3021.dat
0 H00449 ELEMENT 302101 MODULE floor-and-cornice-2
1 15 300 -384 330 0 0 1 0 1 0 -1 0 0 3021.dat
0 H00450 ELEMENT 244501 MODULE floor-and-cornice-2
1 15 160 -384 60 1 0 0 0 1 0 -0 0 1 2445.dat
0 H00451 ELEMENT 244501 MODULE floor-and-cornice-2
1 15 400 -384 60 1 0 0 0 1 0 -0 0 1 2445.dat
0 H00452 ELEMENT 244501 MODULE floor-and-cornice-2
1 15 160 -384 100 1 0 0 0 1 0 -0 0 1 2445.dat
0 H00453 ELEMENT 244501 MODULE floor-and-cornice-2
1 15 400 -384 100 1 0 0 0 1 0 -0 0 1 2445.dat
0 H00454 ELEMENT 303201 MODULE floor-and-cornice-2
1 15 100 -384 160 1 0 0 0 1 0 -0 0 1 3032.dat
0 H00455 ELEMENT 244501 MODULE floor-and-cornice-2
1 15 280 -384 140 1 0 0 0 1 0 -0 0 1 2445.dat
0 H00456 ELEMENT 303201 MODULE floor-and-cornice-2
1 15 460 -384 160 1 0 0 0 1 0 -0 0 1 3032.dat
0 H00457 ELEMENT 244501 MODULE floor-and-cornice-2
1 15 280 -384 180 1 0 0 0 1 0 -0 0 1 2445.dat
0 H00458 ELEMENT 303201 MODULE floor-and-cornice-2
1 15 100 -384 240 1 0 0 0 1 0 -0 0 1 3032.dat
0 H00459 ELEMENT 244501 MODULE floor-and-cornice-2
1 15 280 -384 220 1 0 0 0 1 0 -0 0 1 2445.dat
0 H00460 ELEMENT 303201 MODULE floor-and-cornice-2
1 15 460 -384 240 1 0 0 0 1 0 -0 0 1 3032.dat
0 H00461 ELEMENT 244501 MODULE floor-and-cornice-2
1 15 280 -384 260 1 0 0 0 1 0 -0 0 1 2445.dat
0 H00462 ELEMENT 4514842 MODULE floor-and-cornice-2
1 15 160 -384 290 1 0 0 0 1 0 -0 0 1 60479.dat
0 H00463 ELEMENT 4514842 MODULE floor-and-cornice-2
1 15 400 -384 290 1 0 0 0 1 0 -0 0 1 60479.dat
0 H00464 ELEMENT 302301 MODULE floor-and-cornice-2
1 15 60 -384 310 1 0 0 0 1 0 -0 0 1 3023b.dat
0 H00465 ELEMENT 302301 MODULE floor-and-cornice-2
1 15 220 -384 310 1 0 0 0 1 0 -0 0 1 3023b.dat
0 H00466 ELEMENT 447701 MODULE floor-and-cornice-2
1 15 420 -384 310 1 0 0 0 1 0 -0 0 1 4477.dat
0 STEP
0 H00467 ELEMENT 243226 MODULE balconies-2
1 0 120 -416 370 1 0 0 0 1 0 -0 0 1 2432.dat
0 H00468 ELEMENT 243226 MODULE balconies-2
1 0 160 -416 370 1 0 0 0 1 0 -0 0 1 2432.dat
0 H00469 ELEMENT 306226 MODULE balconies-2
1 0 90 -408 370 1 0 0 0 1 0 -0 0 1 3062b.dat
0 H00470 ELEMENT 307026 MODULE balconies-2
1 0 90 -416 370 1 0 0 0 1 0 -0 0 1 3070b.dat
0 H00471 ELEMENT 306226 MODULE balconies-2
1 0 190 -408 370 1 0 0 0 1 0 -0 0 1 3062b.dat
0 H00472 ELEMENT 307026 MODULE balconies-2
1 0 190 -416 370 1 0 0 0 1 0 -0 0 1 3070b.dat
0 H00473 ELEMENT 4211183 MODULE balconies-2
1 70 90 -408 350 1 0 0 0 1 0 -0 0 1 3062b.dat
0 H00474 ELEMENT 6209673 MODULE balconies-2
1 31 90 -432 350 1 0 0 0 1 0 -0 0 1 3062b.dat
0 H00475 ELEMENT 6229130 MODULE balconies-2
1 2 90 -440 350 1 0 0 0 1 0 -0 0 1 32607.dat
0 H00476 ELEMENT 6299813 MODULE balconies-2
1 14 90 -448 350 1 0 0 0 1 0 -0 0 1 24866.dat
0 H00477 ELEMENT 4211183 MODULE balconies-2
1 70 190 -408 350 1 0 0 0 1 0 -0 0 1 3062b.dat
0 H00478 ELEMENT 6209673 MODULE balconies-2
1 31 190 -432 350 1 0 0 0 1 0 -0 0 1 3062b.dat
0 H00479 ELEMENT 6229130 MODULE balconies-2
1 2 190 -440 350 -1 0 0 0 1 0 -0 0 -1 32607.dat
0 H00480 ELEMENT 6299813 MODULE balconies-2
1 14 190 -448 350 1 0 0 0 1 0 -0 0 1 24866.dat
0 H00481 ELEMENT 243226 MODULE balconies-2
1 0 260 -416 350 1 0 0 0 1 0 -0 0 1 2432.dat
0 H00482 ELEMENT 243226 MODULE balconies-2
1 0 300 -416 350 1 0 0 0 1 0 -0 0 1 2432.dat
0 STEP
0 H00483 ELEMENT 4162465 MODULE storey-3
1 19 70 -408 310 1 0 0 0 1 0 -0 0 1 3622.dat
0 H00484 ELEMENT 4162465 MODULE storey-3
1 19 210 -408 310 1 0 0 0 1 0 -0 0 1 3622.dat
0 H00485 ELEMENT 4162465 MODULE storey-3
1 19 350 -408 310 1 0 0 0 1 0 -0 0 1 3622.dat
0 H00486 ELEMENT 4109995 MODULE storey-3
1 19 480 -408 310 1 0 0 0 1 0 -0 0 1 3004.dat
0 H00487 ELEMENT 4159553 MODULE storey-3
1 19 510 -392 310 1 0 0 0 1 0 -0 0 1 3024.dat
0 H00488 ELEMENT 4159553 MODULE storey-3
1 19 510 -400 310 1 0 0 0 1 0 -0 0 1 3024.dat
0 H00489 ELEMENT 4159553 MODULE storey-3
1 19 510 -408 310 1 0 0 0 1 0 -0 0 1 3024.dat
0 H00490 ELEMENT 4579260 MODULE storey-3
1 19 70 -480 310 -1 0 0 0 1 0 -0 0 -1 87087.dat
0 H00491 ELEMENT 371028 MODULE storey-3
1 2 70 -460 328 0 0 1 -1 0 0 0 -1 0 3710.dat
0 H00492 ELEMENT 4579260 MODULE storey-3
1 19 210 -480 310 -1 0 0 0 1 0 -0 0 -1 87087.dat
0 H00493 ELEMENT 371028 MODULE storey-3
1 2 210 -460 328 0 0 1 -1 0 0 0 -1 0 3710.dat
0 H00494 ELEMENT 4579260 MODULE storey-3
1 19 350 -480 310 -1 0 0 0 1 0 -0 0 -1 87087.dat
0 H00495 ELEMENT 371028 MODULE storey-3
1 2 350 -460 328 0 0 1 -1 0 0 0 -1 0 3710.dat
0 H00496 ELEMENT 4558952 MODULE storey-3
1 15 490 -480 310 -1 0 0 0 1 0 -0 0 -1 87087.dat
0 H00497 ELEMENT 371028 MODULE storey-3
1 2 490 -460 328 0 0 1 -1 0 0 0 -1 0 3710.dat
0 H00498 ELEMENT 4112980 MODULE storey-3
1 19 50 -528 310 1 0 0 0 1 0 -0 0 1 2453a.dat
0 H00499 ELEMENT 4159553 MODULE storey-3
1 19 70 -416 310 1 0 0 0 1 0 -0 0 1 3024.dat
0 H00500 ELEMENT 4159553 MODULE storey-3
1 19 210 -416 310 1 0 0 0 1 0 -0 0 1 3024.dat
0 H00501 ELEMENT 4159553 MODULE storey-3
1 19 350 -416 310 1 0 0 0 1 0 -0 0 1 3024.dat
0 H00502 ELEMENT 4109995 MODULE storey-3
1 19 500 -432 310 1 0 0 0 1 0 -0 0 1 3004.dat
0 H00503 ELEMENT 4159553 MODULE storey-3
1 19 70 -424 310 1 0 0 0 1 0 -0 0 1 3024.dat
0 H00504 ELEMENT 4159553 MODULE storey-3
1 19 210 -424 310 1 0 0 0 1 0 -0 0 1 3024.dat
0 H00505 ELEMENT 4159553 MODULE storey-3
1 19 350 -424 310 1 0 0 0 1 0 -0 0 1 3024.dat
0 H00506 ELEMENT 4159553 MODULE storey-3
1 19 70 -432 310 1 0 0 0 1 0 -0 0 1 3024.dat
0 H00507 ELEMENT 4159553 MODULE storey-3
1 19 210 -432 310 1 0 0 0 1 0 -0 0 1 3024.dat
0 H00508 ELEMENT 4159553 MODULE storey-3
1 19 350 -432 310 1 0 0 0 1 0 -0 0 1 3024.dat
0 H00509 ELEMENT 4159553 MODULE storey-3
1 19 70 -440 310 1 0 0 0 1 0 -0 0 1 3024.dat
0 H00510 ELEMENT 4159553 MODULE storey-3
1 19 210 -440 310 1 0 0 0 1 0 -0 0 1 3024.dat
0 H00511 ELEMENT 4159553 MODULE storey-3
1 19 350 -440 310 1 0 0 0 1 0 -0 0 1 3024.dat
0 H00512 ELEMENT 4109995 MODULE storey-3
1 19 500 -456 310 1 0 0 0 1 0 -0 0 1 3004.dat
0 H00513 ELEMENT 4159553 MODULE storey-3
1 19 70 -448 310 1 0 0 0 1 0 -0 0 1 3024.dat
0 H00514 ELEMENT 4159553 MODULE storey-3
1 19 210 -448 310 1 0 0 0 1 0 -0 0 1 3024.dat
0 H00515 ELEMENT 4159553 MODULE storey-3
1 19 350 -448 310 1 0 0 0 1 0 -0 0 1 3024.dat
0 H00516 ELEMENT 4159553 MODULE storey-3
1 19 70 -456 310 1 0 0 0 1 0 -0 0 1 3024.dat
0 H00517 ELEMENT 4159553 MODULE storey-3
1 19 210 -456 310 1 0 0 0 1 0 -0 0 1 3024.dat
0 H00518 ELEMENT 4159553 MODULE storey-3
1 19 350 -456 310 1 0 0 0 1 0 -0 0 1 3024.dat
0 H00519 ELEMENT 6057517 MODULE storey-3
1 19 510 -528 310 1 0 0 0 1 0 -0 0 1 14716.dat
0 H00520 ELEMENT 4159553 MODULE storey-3
1 19 70 -488 310 1 0 0 0 1 0 -0 0 1 3024.dat
0 H00521 ELEMENT 4159553 MODULE storey-3
1 19 210 -488 310 1 0 0 0 1 0 -0 0 1 3024.dat
0 H00522 ELEMENT 4159553 MODULE storey-3
1 19 350 -488 310 1 0 0 0 1 0 -0 0 1 3024.dat
0 H00523 ELEMENT 4159553 MODULE storey-3
1 19 490 -488 310 1 0 0 0 1 0 -0 0 1 3024.dat
0 H00524 ELEMENT 4159553 MODULE storey-3
1 19 70 -496 310 1 0 0 0 1 0 -0 0 1 3024.dat
0 H00525 ELEMENT 4159553 MODULE storey-3
1 19 210 -496 310 1 0 0 0 1 0 -0 0 1 3024.dat
0 H00526 ELEMENT 4159553 MODULE storey-3
1 19 350 -496 310 1 0 0 0 1 0 -0 0 1 3024.dat
0 H00527 ELEMENT 4159553 MODULE storey-3
1 19 490 -496 310 1 0 0 0 1 0 -0 0 1 3024.dat
0 H00528 ELEMENT 4159553 MODULE storey-3
1 19 70 -504 310 1 0 0 0 1 0 -0 0 1 3024.dat
0 H00529 ELEMENT 4159553 MODULE storey-3
1 19 210 -504 310 1 0 0 0 1 0 -0 0 1 3024.dat
0 H00530 ELEMENT 4159553 MODULE storey-3
1 19 350 -504 310 1 0 0 0 1 0 -0 0 1 3024.dat
0 H00531 ELEMENT 4159553 MODULE storey-3
1 19 490 -504 310 1 0 0 0 1 0 -0 0 1 3024.dat
0 H00532 ELEMENT 4159553 MODULE storey-3
1 19 70 -512 310 1 0 0 0 1 0 -0 0 1 3024.dat
0 H00533 ELEMENT 4159553 MODULE storey-3
1 19 210 -512 310 1 0 0 0 1 0 -0 0 1 3024.dat
0 H00534 ELEMENT 4159553 MODULE storey-3
1 19 350 -512 310 1 0 0 0 1 0 -0 0 1 3024.dat
0 H00535 ELEMENT 4159553 MODULE storey-3
1 19 490 -512 310 1 0 0 0 1 0 -0 0 1 3024.dat
0 H00536 ELEMENT 4159553 MODULE storey-3
1 19 70 -520 310 1 0 0 0 1 0 -0 0 1 3024.dat
0 H00537 ELEMENT 4159553 MODULE storey-3
1 19 210 -520 310 1 0 0 0 1 0 -0 0 1 3024.dat
0 H00538 ELEMENT 4159553 MODULE storey-3
1 19 350 -520 310 1 0 0 0 1 0 -0 0 1 3024.dat
0 H00539 ELEMENT 4159553 MODULE storey-3
1 19 490 -520 310 1 0 0 0 1 0 -0 0 1 3024.dat
0 H00540 ELEMENT 4159553 MODULE storey-3
1 19 70 -528 310 1 0 0 0 1 0 -0 0 1 3024.dat
0 H00541 ELEMENT 4159553 MODULE storey-3
1 19 210 -528 310 1 0 0 0 1 0 -0 0 1 3024.dat
0 H00542 ELEMENT 4159553 MODULE storey-3
1 19 350 -528 310 1 0 0 0 1 0 -0 0 1 3024.dat
0 H00543 ELEMENT 4159553 MODULE storey-3
1 19 490 -528 310 1 0 0 0 1 0 -0 0 1 3024.dat
0 H00544 ELEMENT 4159774 MODULE storey-3
1 19 120 -552 310 1 0 0 0 1 0 -0 0 1 3008.dat
0 H00545 ELEMENT 4159774 MODULE storey-3
1 19 280 -552 310 1 0 0 0 1 0 -0 0 1 3008.dat
0 H00546 ELEMENT 4159774 MODULE storey-3
1 19 440 -552 310 1 0 0 0 1 0 -0 0 1 3008.dat
0 H00547 ELEMENT 6055541 MODULE storey-3
1 15 90 -480 310 1 0 0 0 1 0 -0 0 1 14716.dat
0 H00548 ELEMENT 6055541 MODULE storey-3
1 15 190 -480 310 1 0 0 0 1 0 -0 0 1 14716.dat
0 H00549 ELEMENT 6106183 MODULE storey-3
1 15 140 -528 310 1 0 0 0 1 0 -0 0 1 15254.dat
0 H00550 ELEMENT 301001 MODULE storey-3
1 15 140 -408 290 1 0 0 0 1 0 -0 0 1 3010.dat
0 H00551 ELEMENT 300101 MODULE storey-3
1 15 140 -408 320 1 0 0 0 1 0 -0 0 1 3001.dat
0 H00552 ELEMENT 4530589 MODULE storey-3
1 0 140 -480 290 1 0 0 0 1 0 -0 0 1 60594.dat
0 H00553 ELEMENT 6514142 MODULE storey-3
1 47 140 -472 294 1 0 0 0 1 0 -0 0 1 86210.dat
0 H00554 ELEMENT 362226 MODULE storey-3
1 0 130 -504 290 1 0 0 0 1 0 -0 0 1 3622.dat
0 H00555 ELEMENT 300526 MODULE storey-3
1 0 170 -504 290 1 0 0 0 1 0 -0 0 1 3005.dat
0 H00556 ELEMENT 362226 MODULE storey-3
1 0 130 -528 290 1 0 0 0 1 0 -0 0 1 3622.dat
0 H00557 ELEMENT 300526 MODULE storey-3
1 0 170 -528 290 1 0 0 0 1 0 -0 0 1 3005.dat
0 H00558 ELEMENT 4550324 MODULE storey-3
1 19 140 -416 330 1 0 0 0 1 0 -0 0 1 2431.dat
0 H00559 ELEMENT 6055541 MODULE storey-3
1 15 230 -480 310 1 0 0 0 1 0 -0 0 1 14716.dat
0 H00560 ELEMENT 6055541 MODULE storey-3
1 15 330 -480 310 1 0 0 0 1 0 -0 0 1 14716.dat
0 H00561 ELEMENT 6106183 MODULE storey-3
1 15 280 -528 310 1 0 0 0 1 0 -0 0 1 15254.dat
0 H00562 ELEMENT 301001 MODULE storey-3
1 15 280 -408 290 1 0 0 0 1 0 -0 0 1 3010.dat
0 H00563 ELEMENT 300101 MODULE storey-3
1 15 280 -408 320 1 0 0 0 1 0 -0 0 1 3001.dat
0 H00564 ELEMENT 4530589 MODULE storey-3
1 0 280 -480 290 1 0 0 0 1 0 -0 0 1 60594.dat
0 H00565 ELEMENT 6514142 MODULE storey-3
1 47 280 -472 294 1 0 0 0 1 0 -0 0 1 86210.dat
0 H00566 ELEMENT 362226 MODULE storey-3
1 0 270 -504 290 1 0 0 0 1 0 -0 0 1 3622.dat
0 H00567 ELEMENT 300526 MODULE storey-3
1 0 310 -504 290 1 0 0 0 1 0 -0 0 1 3005.dat
0 H00568 ELEMENT 362226 MODULE storey-3
1 0 270 -528 290 1 0 0 0 1 0 -0 0 1 3622.dat
0 H00569 ELEMENT 300526 MODULE storey-3
1 0 310 -528 290 1 0 0 0 1 0 -0 0 1 3005.dat
0 H00570 ELEMENT 4550324 MODULE storey-3
1 19 280 -416 330 1 0 0 0 1 0 -0 0 1 2431.dat
0 H00571 ELEMENT 6055541 MODULE storey-3
1 15 370 -480 310 1 0 0 0 1 0 -0 0 1 14716.dat
0 H00572 ELEMENT 6055541 MODULE storey-3
1 15 470 -480 310 1 0 0 0 1 0 -0 0 1 14716.dat
0 H00573 ELEMENT 6106183 MODULE storey-3
1 15 420 -528 310 1 0 0 0 1 0 -0 0 1 15254.dat
0 H00574 ELEMENT 301001 MODULE storey-3
1 15 420 -408 290 1 0 0 0 1 0 -0 0 1 3010.dat
0 H00575 ELEMENT 300101 MODULE storey-3
1 15 420 -408 320 1 0 0 0 1 0 -0 0 1 3001.dat
0 H00576 ELEMENT 4530589 MODULE storey-3
1 0 420 -480 290 1 0 0 0 1 0 -0 0 1 60594.dat
0 H00577 ELEMENT 6514142 MODULE storey-3
1 47 420 -472 294 1 0 0 0 1 0 -0 0 1 86210.dat
0 H00578 ELEMENT 362226 MODULE storey-3
1 0 410 -504 290 1 0 0 0 1 0 -0 0 1 3622.dat
0 H00579 ELEMENT 300526 MODULE storey-3
1 0 450 -504 290 1 0 0 0 1 0 -0 0 1 3005.dat
0 H00580 ELEMENT 362226 MODULE storey-3
1 0 410 -528 290 1 0 0 0 1 0 -0 0 1 3622.dat
0 H00581 ELEMENT 300526 MODULE storey-3
1 0 450 -528 290 1 0 0 0 1 0 -0 0 1 3005.dat
0 H00582 ELEMENT 4550324 MODULE storey-3
1 19 420 -416 330 1 0 0 0 1 0 -0 0 1 2431.dat
0 H00583 ELEMENT 4112982 MODULE storey-3
1 19 50 -408 100 0 0 1 0 1 0 -1 0 0 3009.dat
0 H00584 ELEMENT 4112982 MODULE storey-3
1 19 50 -408 220 0 0 1 0 1 0 -1 0 0 3009.dat
0 H00585 ELEMENT 4159553 MODULE storey-3
1 19 50 -392 290 1 0 0 0 1 0 -0 0 1 3024.dat
0 H00586 ELEMENT 4159553 MODULE storey-3
1 19 50 -400 290 1 0 0 0 1 0 -0 0 1 3024.dat
0 H00587 ELEMENT 4159553 MODULE storey-3
1 19 50 -408 290 1 0 0 0 1 0 -0 0 1 3024.dat
0 H00588 ELEMENT 245301 MODULE storey-3
1 15 50 -528 50 1 0 0 0 1 0 -0 0 1 2453a.dat
0 H00589 ELEMENT 245401 MODULE storey-3
1 15 50 -528 280 0 0 1 0 1 0 -1 0 0 2454.dat
0 H00590 ELEMENT 6146877 MODULE storey-3
1 19 50 -480 100 0 0 1 0 1 0 -1 0 0 60581.dat
0 H00591 ELEMENT 4113916 MODULE storey-3
1 19 50 -504 100 0 0 1 0 1 0 -1 0 0 3010.dat
0 H00592 ELEMENT 4113916 MODULE storey-3
1 19 50 -528 100 0 0 1 0 1 0 -1 0 0 3010.dat
0 H00593 ELEMENT 6055541 MODULE storey-3
1 15 50 -480 150 1 0 0 0 1 0 -0 0 1 14716.dat
0 H00594 ELEMENT 6055541 MODULE storey-3
1 15 50 -480 250 1 0 0 0 1 0 -0 0 1 14716.dat
0 H00595 ELEMENT 6106183 MODULE storey-3
1 15 50 -528 200 0 0 1 0 1 0 -1 0 0 15254.dat
0 H00596 ELEMENT 4112982 MODULE storey-3
1 19 50 -552 100 0 0 1 0 1 0 -1 0 0 3009.dat
0 H00597 ELEMENT 4112982 MODULE storey-3
1 19 50 -552 220 0 0 1 0 1 0 -1 0 0 3009.dat
0 H00598 ELEMENT 4159553 MODULE storey-3
1 19 50 -536 290 1 0 0 0 1 0 -0 0 1 3024.dat
0 H00599 ELEMENT 4159553 MODULE storey-3
1 19 50 -544 290 1 0 0 0 1 0 -0 0 1 3024.dat
0 H00600 ELEMENT 4159553 MODULE storey-3
1 19 50 -552 290 1 0 0 0 1 0 -0 0 1 3024.dat
0 H00601 ELEMENT 301001 MODULE storey-3
1 15 70 -408 200 0 0 1 0 1 0 -1 0 0 3010.dat
0 H00602 ELEMENT 4530590 MODULE storey-3
1 15 70 -480 200 0 0 1 0 1 0 -1 0 0 60594.dat
0 H00603 ELEMENT 6514142 MODULE storey-3
1 47 74 -472 200 0 0 1 0 1 0 -1 0 0 86210.dat
0 H00604 ELEMENT 362226 MODULE storey-3
1 0 70 -504 190 0 0 1 0 1 0 -1 0 0 3622.dat
0 H00605 ELEMENT 300526 MODULE storey-3
1 0 70 -504 230 1 0 0 0 1 0 -0 0 1 3005.dat
0 H00606 ELEMENT 362226 MODULE storey-3
1 0 70 -528 190 0 0 1 0 1 0 -1 0 0 3622.dat
0 H00607 ELEMENT 300526 MODULE storey-3
1 0 70 -528 230 1 0 0 0 1 0 -0 0 1 3005.dat
0 H00608 ELEMENT 4112982 MODULE storey-3
1 19 510 -408 100 0 0 1 0 1 0 -1 0 0 3009.dat
0 H00609 ELEMENT 4112982 MODULE storey-3
1 19 510 -408 220 0 0 1 0 1 0 -1 0 0 3009.dat
0 H00610 ELEMENT 4159553 MODULE storey-3
1 19 510 -392 290 1 0 0 0 1 0 -0 0 1 3024.dat
0 H00611 ELEMENT 4159553 MODULE storey-3
1 19 510 -400 290 1 0 0 0 1 0 -0 0 1 3024.dat
0 H00612 ELEMENT 4159553 MODULE storey-3
1 19 510 -408 290 1 0 0 0 1 0 -0 0 1 3024.dat
0 H00613 ELEMENT 245301 MODULE storey-3
1 15 510 -528 50 1 0 0 0 1 0 -0 0 1 2453a.dat
0 H00614 ELEMENT 245301 MODULE storey-3
1 15 510 -528 270 1 0 0 0 1 0 -0 0 1 2453a.dat
0 H00615 ELEMENT 245301 MODULE storey-3
1 15 510 -528 290 1 0 0 0 1 0 -0 0 1 2453a.dat
0 H00616 ELEMENT 6146877 MODULE storey-3
1 19 510 -480 100 0 0 1 0 1 0 -1 0 0 60581.dat
0 H00617 ELEMENT 4113916 MODULE storey-3
1 19 510 -504 100 0 0 1 0 1 0 -1 0 0 3010.dat
0 H00618 ELEMENT 4113916 MODULE storey-3
1 19 510 -528 100 0 0 1 0 1 0 -1 0 0 3010.dat
0 H00619 ELEMENT 6055541 MODULE storey-3
1 15 510 -480 150 1 0 0 0 1 0 -0 0 1 14716.dat
0 H00620 ELEMENT 300501 MODULE storey-3
1 15 510 -432 250 1 0 0 0 1 0 -0 0 1 3005.dat
0 H00621 ELEMENT 300501 MODULE storey-3
1 15 510 -456 250 1 0 0 0 1 0 -0 0 1 3005.dat
0 H00622 ELEMENT 300501 MODULE storey-3
1 15 510 -480 250 1 0 0 0 1 0 -0 0 1 3005.dat
0 H00623 ELEMENT 6106183 MODULE storey-3
1 15 510 -528 200 0 0 1 0 1 0 -1 0 0 15254.dat
0 H00624 ELEMENT 4112982 MODULE storey-3
1 19 510 -552 100 0 0 1 0 1 0 -1 0 0 3009.dat
0 H00625 ELEMENT 4112982 MODULE storey-3
1 19 510 -552 220 0 0 1 0 1 0 -1 0 0 3009.dat
0 H00626 ELEMENT 4159553 MODULE storey-3
1 19 510 -536 290 1 0 0 0 1 0 -0 0 1 3024.dat
0 H00627 ELEMENT 4159553 MODULE storey-3
1 19 510 -544 290 1 0 0 0 1 0 -0 0 1 3024.dat
0 H00628 ELEMENT 4159553 MODULE storey-3
1 19 510 -552 290 1 0 0 0 1 0 -0 0 1 3024.dat
0 H00629 ELEMENT 301001 MODULE storey-3
1 15 490 -408 200 0 0 1 0 1 0 -1 0 0 3010.dat
0 H00630 ELEMENT 4530590 MODULE storey-3
1 15 490 -480 200 0 0 1 0 1 0 -1 0 0 60594.dat
0 H00631 ELEMENT 6514142 MODULE storey-3
1 47 494 -472 200 0 0 1 0 1 0 -1 0 0 86210.dat
0 H00632 ELEMENT 362226 MODULE storey-3
1 0 490 -504 190 0 0 1 0 1 0 -1 0 0 3622.dat
0 H00633 ELEMENT 300526 MODULE storey-3
1 0 490 -504 230 1 0 0 0 1 0 -0 0 1 3005.dat
0 H00634 ELEMENT 362226 MODULE storey-3
1 0 490 -528 190 0 0 1 0 1 0 -1 0 0 3622.dat
0 H00635 ELEMENT 302426 MODULE storey-3
1 0 490 -512 230 1 0 0 0 1 0 -0 0 1 3024.dat
0 H00636 ELEMENT 302426 MODULE storey-3
1 0 490 -520 230 1 0 0 0 1 0 -0 0 1 3024.dat
0 H00637 ELEMENT 302426 MODULE storey-3
1 0 490 -528 230 1 0 0 0 1 0 -0 0 1 3024.dat
0 H00638 ELEMENT 611201 MODULE storey-3
1 15 180 -408 50 1 0 0 0 1 0 -0 0 1 6112.dat
0 H00639 ELEMENT 611101 MODULE storey-3
1 15 400 -408 50 1 0 0 0 1 0 -0 0 1 6111.dat
0 H00640 ELEMENT 611201 MODULE storey-3
1 15 180 -432 50 1 0 0 0 1 0 -0 0 1 6112.dat
0 H00641 ELEMENT 611101 MODULE storey-3
1 15 400 -432 50 1 0 0 0 1 0 -0 0 1 6111.dat
0 H00642 ELEMENT 611201 MODULE storey-3
1 15 180 -456 50 1 0 0 0 1 0 -0 0 1 6112.dat
0 H00643 ELEMENT 611101 MODULE storey-3
1 15 400 -456 50 1 0 0 0 1 0 -0 0 1 6111.dat
0 H00644 ELEMENT 611101 MODULE storey-3
1 15 160 -480 50 1 0 0 0 1 0 -0 0 1 6111.dat
0 H00645 ELEMENT 300801 MODULE storey-3
1 15 340 -480 50 1 0 0 0 1 0 -0 0 1 3008.dat
0 H00646 ELEMENT 301001 MODULE storey-3
1 15 460 -480 50 1 0 0 0 1 0 -0 0 1 3010.dat
0 H00647 ELEMENT 300801 MODULE storey-3
1 15 140 -504 50 1 0 0 0 1 0 -0 0 1 3008.dat
0 H00648 ELEMENT 300801 MODULE storey-3
1 15 300 -504 50 1 0 0 0 1 0 -0 0 1 3008.dat
0 H00649 ELEMENT 300901 MODULE storey-3
1 15 440 -504 50 1 0 0 0 1 0 -0 0 1 3009.dat
0 H00650 ELEMENT 300801 MODULE storey-3
1 15 140 -528 50 1 0 0 0 1 0 -0 0 1 3008.dat
0 H00651 ELEMENT 300801 MODULE storey-3
1 15 300 -528 50 1 0 0 0 1 0 -0 0 1 3008.dat
0 H00652 ELEMENT 300901 MODULE storey-3
1 15 440 -528 50 1 0 0 0 1 0 -0 0 1 3009.dat
0 H00653 ELEMENT 300801 MODULE storey-3
1 15 140 -552 50 1 0 0 0 1 0 -0 0 1 3008.dat
0 H00654 ELEMENT 300801 MODULE storey-3
1 15 300 -552 50 1 0 0 0 1 0 -0 0 1 3008.dat
0 H00655 ELEMENT 300901 MODULE storey-3
1 15 440 -552 50 1 0 0 0 1 0 -0 0 1 3009.dat
0 STEP
0 H00656 ELEMENT 303201 MODULE floor-and-cornice-3
1 15 80 -560 60 1 0 0 0 1 0 -0 0 1 3032.dat
0 H00657 ELEMENT 244501 MODULE floor-and-cornice-3
1 15 260 -560 40 1 0 0 0 1 0 -0 0 1 2445.dat
0 H00658 ELEMENT 303201 MODULE floor-and-cornice-3
1 15 440 -560 60 1 0 0 0 1 0 -0 0 1 3032.dat
0 H00659 ELEMENT 383201 MODULE floor-and-cornice-3
1 15 520 -560 120 0 0 1 0 1 0 -1 0 0 3832.dat
0 H00660 ELEMENT 383201 MODULE floor-and-cornice-3
1 15 240 -560 80 1 0 0 0 1 0 -0 0 1 3832.dat
0 H00661 ELEMENT 383201 MODULE floor-and-cornice-3
1 15 360 -560 160 0 0 1 0 1 0 -1 0 0 3832.dat
0 H00662 ELEMENT 383201 MODULE floor-and-cornice-3
1 15 120 -560 120 1 0 0 0 1 0 -0 0 1 3832.dat
0 H00663 ELEMENT 383201 MODULE floor-and-cornice-3
1 15 240 -560 200 0 0 1 0 1 0 -1 0 0 3832.dat
0 H00664 ELEMENT 383201 MODULE floor-and-cornice-3
1 15 280 -560 200 0 0 1 0 1 0 -1 0 0 3832.dat
0 H00665 ELEMENT 383201 MODULE floor-and-cornice-3
1 15 320 -560 200 0 0 1 0 1 0 -1 0 0 3832.dat
0 H00666 ELEMENT 383201 MODULE floor-and-cornice-3
1 15 400 -560 200 0 0 1 0 1 0 -1 0 0 3832.dat
0 H00667 ELEMENT 303401 MODULE floor-and-cornice-3
1 15 440 -560 180 0 0 1 0 1 0 -1 0 0 3034.dat
0 H00668 ELEMENT 303401 MODULE floor-and-cornice-3
1 15 480 -560 180 0 0 1 0 1 0 -1 0 0 3034.dat
0 H00669 ELEMENT 303401 MODULE floor-and-cornice-3
1 15 100 -560 160 1 0 0 0 1 0 -0 0 1 3034.dat
0 H00670 ELEMENT 303401 MODULE floor-and-cornice-3
1 15 200 -560 220 0 0 1 0 1 0 -1 0 0 3034.dat
0 H00671 ELEMENT 303401 MODULE floor-and-cornice-3
1 15 100 -560 200 1 0 0 0 1 0 -0 0 1 3034.dat
0 H00672 ELEMENT 303401 MODULE floor-and-cornice-3
1 15 100 -560 240 1 0 0 0 1 0 -0 0 1 3034.dat
0 H00673 ELEMENT 379501 MODULE floor-and-cornice-3
1 15 520 -560 280 0 0 1 0 1 0 -1 0 0 3795.dat
0 H00674 ELEMENT 303401 MODULE floor-and-cornice-3
1 15 100 -560 280 1 0 0 0 1 0 -0 0 1 3034.dat
0 H00675 ELEMENT 302001 MODULE floor-and-cornice-3
1 15 360 -560 300 0 0 1 0 1 0 -1 0 0 3020.dat
0 H00676 ELEMENT 4243812 MODULE floor-and-cornice-3
1 15 460 -560 300 1 0 0 0 1 0 -0 0 1 3031.dat
0 H00677 ELEMENT 303401 MODULE floor-and-cornice-3
1 15 100 -560 320 1 0 0 0 1 0 -0 0 1 3034.dat
0 H00678 ELEMENT 303401 MODULE floor-and-cornice-3
1 15 260 -560 320 1 0 0 0 1 0 -0 0 1 3034.dat
0 H00679 ELEMENT 302201 MODULE floor-and-cornice-3
1 15 400 -560 320 1 0 0 0 1 0 -0 0 1 3022.dat
0 H00680 ELEMENT 303401 MODULE floor-and-cornice-3
1 15 100 -568 40 1 0 0 0 1 0 -0 0 1 3034.dat
0 H00681 ELEMENT 303401 MODULE floor-and-cornice-3
1 15 260 -568 40 1 0 0 0 1 0 -0 0 1 3034.dat
0 H00682 ELEMENT 303401 MODULE floor-and-cornice-3
1 15 420 -568 40 1 0 0 0 1 0 -0 0 1 3034.dat
0 H00683 ELEMENT 303401 MODULE floor-and-cornice-3
1 15 520 -568 100 0 0 1 0 1 0 -1 0 0 3034.dat
0 H00684 ELEMENT 303401 MODULE floor-and-cornice-3
1 15 100 -568 80 1 0 0 0 1 0 -0 0 1 3034.dat
0 H00685 ELEMENT 4243812 MODULE floor-and-cornice-3
1 15 220 -568 100 1 0 0 0 1 0 -0 0 1 3031.dat
0 H00686 ELEMENT 303401 MODULE floor-and-cornice-3
1 15 340 -568 80 1 0 0 0 1 0 -0 0 1 3034.dat
0 H00687 ELEMENT 4243812 MODULE floor-and-cornice-3
1 15 460 -568 100 1 0 0 0 1 0 -0 0 1 3031.dat
0 H00688 ELEMENT 303401 MODULE floor-and-cornice-3
1 15 100 -568 120 1 0 0 0 1 0 -0 0 1 3034.dat
0 H00689 ELEMENT 4243812 MODULE floor-and-cornice-3
1 15 300 -568 140 1 0 0 0 1 0 -0 0 1 3031.dat
0 H00690 ELEMENT 303401 MODULE floor-and-cornice-3
1 15 360 -568 180 0 0 1 0 1 0 -1 0 0 3034.dat
0 H00691 ELEMENT 303401 MODULE floor-and-cornice-3
1 15 400 -568 180 0 0 1 0 1 0 -1 0 0 3034.dat
0 H00692 ELEMENT 4243812 MODULE floor-and-cornice-3
1 15 60 -568 180 1 0 0 0 1 0 -0 0 1 3031.dat
0 H00693 ELEMENT 4243812 MODULE floor-and-cornice-3
1 15 140 -568 180 1 0 0 0 1 0 -0 0 1 3031.dat
0 H00694 ELEMENT 303401 MODULE floor-and-cornice-3
1 15 200 -568 220 0 0 1 0 1 0 -1 0 0 3034.dat
0 H00695 ELEMENT 303401 MODULE floor-and-cornice-3
1 15 240 -568 220 0 0 1 0 1 0 -1 0 0 3034.dat
0 H00696 ELEMENT 4243812 MODULE floor-and-cornice-3
1 15 460 -568 180 1 0 0 0 1 0 -0 0 1 3031.dat
0 H00697 ELEMENT 4243812 MODULE floor-and-cornice-3
1 15 300 -568 220 1 0 0 0 1 0 -0 0 1 3031.dat
0 H00698 ELEMENT 303401 MODULE floor-and-cornice-3
1 15 520 -568 260 0 0 1 0 1 0 -1 0 0 3034.dat
0 H00699 ELEMENT 4243812 MODULE floor-and-cornice-3
1 15 60 -568 260 1 0 0 0 1 0 -0 0 1 3031.dat
0 H00700 ELEMENT 4243812 MODULE floor-and-cornice-3
1 15 140 -568 260 1 0 0 0 1 0 -0 0 1 3031.dat
0 H00701 ELEMENT 4243812 MODULE floor-and-cornice-3
1 15 460 -568 260 1 0 0 0 1 0 -0 0 1 3031.dat
0 H00702 ELEMENT 303401 MODULE floor-and-cornice-3
1 15 340 -568 280 1 0 0 0 1 0 -0 0 1 3034.dat
0 H00703 ELEMENT 303401 MODULE floor-and-cornice-3
1 15 100 -568 320 1 0 0 0 1 0 -0 0 1 3034.dat
0 H00704 ELEMENT 379501 MODULE floor-and-cornice-3
1 15 240 -568 320 1 0 0 0 1 0 -0 0 1 3795.dat
0 H00705 ELEMENT 379501 MODULE floor-and-cornice-3
1 15 360 -568 320 1 0 0 0 1 0 -0 0 1 3795.dat
0 H00706 ELEMENT 302001 MODULE floor-and-cornice-3
1 15 460 -568 320 1 0 0 0 1 0 -0 0 1 3020.dat
0 STEP
0 H00001 ELEMENT 4211202 MODULE main-roof
1 70 40 -592 50 1 0 0 0 1 0 -0 0 1 3039.dat
0 H00002 ELEMENT 4211202 MODULE main-roof
1 70 40 -592 310 -1 0 0 0 1 0 -0 0 -1 3039.dat
0 H00003 ELEMENT 4211202 MODULE main-roof
1 70 80 -592 50 1 0 0 0 1 0 -0 0 1 3039.dat
0 H00004 ELEMENT 4211202 MODULE main-roof
1 70 80 -592 310 -1 0 0 0 1 0 -0 0 -1 3039.dat
0 H00005 ELEMENT 4211202 MODULE main-roof
1 70 120 -592 50 1 0 0 0 1 0 -0 0 1 3039.dat
0 H00006 ELEMENT 4211202 MODULE main-roof
1 70 120 -592 310 -1 0 0 0 1 0 -0 0 -1 3039.dat
0 H00007 ELEMENT 4211202 MODULE main-roof
1 70 160 -592 50 1 0 0 0 1 0 -0 0 1 3039.dat
0 H00008 ELEMENT 4211202 MODULE main-roof
1 70 160 -592 310 -1 0 0 0 1 0 -0 0 -1 3039.dat
0 H00009 ELEMENT 4211202 MODULE main-roof
1 70 200 -592 50 1 0 0 0 1 0 -0 0 1 3039.dat
0 H00010 ELEMENT 4211202 MODULE main-roof
1 70 200 -592 310 -1 0 0 0 1 0 -0 0 -1 3039.dat
0 H00011 ELEMENT 4211202 MODULE main-roof
1 70 240 -592 50 1 0 0 0 1 0 -0 0 1 3039.dat
0 H00012 ELEMENT 4211202 MODULE main-roof
1 70 240 -592 310 -1 0 0 0 1 0 -0 0 -1 3039.dat
0 H00013 ELEMENT 4211202 MODULE main-roof
1 70 280 -592 50 1 0 0 0 1 0 -0 0 1 3039.dat
0 H00014 ELEMENT 4211202 MODULE main-roof
1 70 280 -592 310 -1 0 0 0 1 0 -0 0 -1 3039.dat
0 H00015 ELEMENT 4211202 MODULE main-roof
1 70 320 -592 50 1 0 0 0 1 0 -0 0 1 3039.dat
0 H00016 ELEMENT 4211202 MODULE main-roof
1 70 320 -592 310 -1 0 0 0 1 0 -0 0 -1 3039.dat
0 H00017 ELEMENT 4211202 MODULE main-roof
1 70 360 -592 50 1 0 0 0 1 0 -0 0 1 3039.dat
0 H00018 ELEMENT 4211202 MODULE main-roof
1 70 360 -592 310 -1 0 0 0 1 0 -0 0 -1 3039.dat
0 H00019 ELEMENT 4211202 MODULE main-roof
1 70 400 -592 50 1 0 0 0 1 0 -0 0 1 3039.dat
0 H00020 ELEMENT 4211202 MODULE main-roof
1 70 400 -592 310 -1 0 0 0 1 0 -0 0 -1 3039.dat
0 H00021 ELEMENT 4211202 MODULE main-roof
1 70 440 -592 50 1 0 0 0 1 0 -0 0 1 3039.dat
0 H00022 ELEMENT 4211202 MODULE main-roof
1 70 440 -592 310 -1 0 0 0 1 0 -0 0 -1 3039.dat
0 H00023 ELEMENT 4211202 MODULE main-roof
1 70 480 -592 50 1 0 0 0 1 0 -0 0 1 3039.dat
0 H00024 ELEMENT 4211202 MODULE main-roof
1 70 480 -592 310 -1 0 0 0 1 0 -0 0 -1 3039.dat
0 H00025 ELEMENT 4211202 MODULE main-roof
1 70 520 -592 50 1 0 0 0 1 0 -0 0 1 3039.dat
0 H00026 ELEMENT 4211202 MODULE main-roof
1 70 520 -592 310 -1 0 0 0 1 0 -0 0 -1 3039.dat
0 H00027 ELEMENT 4210783 MODULE main-roof
1 72 220 -592 70 1 0 0 0 1 0 -0 0 1 2465.dat
0 H00028 ELEMENT 6187438 MODULE main-roof
1 72 400 -592 140 0 0 1 0 1 0 -1 0 0 3007.dat
0 H00029 ELEMENT 6037399 MODULE main-roof
1 71 440 -592 140 0 0 1 0 1 0 -1 0 0 3007.dat
0 H00030 ELEMENT 6037399 MODULE main-roof
1 71 480 -592 140 0 0 1 0 1 0 -1 0 0 3007.dat
0 H00031 ELEMENT 4210783 MODULE main-roof
1 72 220 -592 90 1 0 0 0 1 0 -0 0 1 2465.dat
0 H00032 ELEMENT 4211366 MODULE main-roof
1 71 220 -592 110 1 0 0 0 1 0 -0 0 1 2465.dat
0 H00033 ELEMENT 4211366 MODULE main-roof
1 71 220 -592 130 1 0 0 0 1 0 -0 0 1 2465.dat
0 H00034 ELEMENT 4211366 MODULE main-roof
1 71 220 -592 150 1 0 0 0 1 0 -0 0 1 2465.dat
0 H00035 ELEMENT 6037399 MODULE main-roof
1 71 140 -592 180 1 0 0 0 1 0 -0 0 1 3007.dat
0 H00036 ELEMENT 6037399 MODULE main-roof
1 71 300 -592 180 1 0 0 0 1 0 -0 0 1 3007.dat
0 H00037 ELEMENT 4211366 MODULE main-roof
1 71 220 -592 210 1 0 0 0 1 0 -0 0 1 2465.dat
0 H00038 ELEMENT 246526 MODULE main-roof
1 0 220 -592 230 1 0 0 0 1 0 -0 0 1 2465.dat
0 H00039 ELEMENT 4210875 MODULE main-roof
1 72 440 -592 240 1 0 0 0 1 0 -0 0 1 2456.dat
0 H00040 ELEMENT 246526 MODULE main-roof
1 0 220 -592 250 1 0 0 0 1 0 -0 0 1 2465.dat
0 H00041 ELEMENT 246526 MODULE main-roof
1 0 220 -592 270 1 0 0 0 1 0 -0 0 1 2465.dat
0 H00042 ELEMENT 4211795 MODULE main-roof
1 71 440 -592 280 1 0 0 0 1 0 -0 0 1 2456.dat
0 H00043 ELEMENT 246526 MODULE main-roof
1 0 220 -592 290 1 0 0 0 1 0 -0 0 1 2465.dat
0 H00044 ELEMENT 4211211 MODULE main-roof
1 70 40 -576 140 0 0 1 0 1 0 -1 0 0 3034.dat
0 H00045 ELEMENT 4211211 MODULE main-roof
1 70 520 -576 140 0 0 1 0 1 0 -1 0 0 3034.dat
0 H00046 ELEMENT 4211186 MODULE main-roof
1 70 40 -576 260 0 0 1 0 1 0 -1 0 0 3020.dat
0 H00047 ELEMENT 4211186 MODULE main-roof
1 70 520 -576 260 0 0 1 0 1 0 -1 0 0 3020.dat
0 H00048 ELEMENT 4211247 MODULE main-roof
1 70 40 -584 120 0 0 1 0 1 0 -1 0 0 3795.dat
0 H00049 ELEMENT 4211247 MODULE main-roof
1 70 520 -584 120 0 0 1 0 1 0 -1 0 0 3795.dat
0 H00050 ELEMENT 4211247 MODULE main-roof
1 70 40 -584 240 0 0 1 0 1 0 -1 0 0 3795.dat
0 H00051 ELEMENT 4211247 MODULE main-roof
1 70 520 -584 240 0 0 1 0 1 0 -1 0 0 3795.dat
0 H00052 ELEMENT 4585337 MODULE main-roof
1 70 30 -592 140 0 0 1 0 1 0 -1 0 0 4162.dat
0 H00053 ELEMENT 4585337 MODULE main-roof
1 70 50 -592 140 0 0 1 0 1 0 -1 0 0 4162.dat
0 H00054 ELEMENT 4585337 MODULE main-roof
1 70 510 -592 140 0 0 1 0 1 0 -1 0 0 4162.dat
0 H00055 ELEMENT 4585337 MODULE main-roof
1 70 530 -592 140 0 0 1 0 1 0 -1 0 0 4162.dat
0 H00056 ELEMENT 4579690 MODULE main-roof
1 70 40 -592 260 0 0 1 0 1 0 -1 0 0 87079.dat
0 H00057 ELEMENT 4579690 MODULE main-roof
1 70 520 -592 260 0 0 1 0 1 0 -1 0 0 87079.dat
0 STEP
0 H00058 ELEMENT 4211202 MODULE main-roof
1 70 80 -616 90 1 0 0 0 1 0 -0 0 1 3039.dat
0 H00059 ELEMENT 4211202 MODULE main-roof
1 70 80 -616 270 -1 0 0 0 1 0 -0 0 -1 3039.dat
0 H00060 ELEMENT 4211202 MODULE main-roof
1 70 120 -616 90 1 0 0 0 1 0 -0 0 1 3039.dat
0 H00061 ELEMENT 4211202 MODULE main-roof
1 70 120 -616 270 -1 0 0 0 1 0 -0 0 -1 3039.dat
0 H00062 ELEMENT 4211202 MODULE main-roof
1 70 160 -616 90 1 0 0 0 1 0 -0 0 1 3039.dat
0 H00063 ELEMENT 4211202 MODULE main-roof
1 70 160 -616 270 -1 0 0 0 1 0 -0 0 -1 3039.dat
0 H00064 ELEMENT 4211202 MODULE main-roof
1 70 200 -616 90 1 0 0 0 1 0 -0 0 1 3039.dat
0 H00065 ELEMENT 4211202 MODULE main-roof
1 70 200 -616 270 -1 0 0 0 1 0 -0 0 -1 3039.dat
0 H00066 ELEMENT 4211202 MODULE main-roof
1 70 240 -616 90 1 0 0 0 1 0 -0 0 1 3039.dat
0 H00067 ELEMENT 4211202 MODULE main-roof
1 70 240 -616 270 -1 0 0 0 1 0 -0 0 -1 3039.dat
0 H00068 ELEMENT 4211202 MODULE main-roof
1 70 280 -616 90 1 0 0 0 1 0 -0 0 1 3039.dat
0 H00069 ELEMENT 4211202 MODULE main-roof
1 70 280 -616 270 -1 0 0 0 1 0 -0 0 -1 3039.dat
0 H00070 ELEMENT 4211202 MODULE main-roof
1 70 320 -616 90 1 0 0 0 1 0 -0 0 1 3039.dat
0 H00071 ELEMENT 4211202 MODULE main-roof
1 70 320 -616 270 -1 0 0 0 1 0 -0 0 -1 3039.dat
0 H00072 ELEMENT 4211202 MODULE main-roof
1 70 360 -616 90 1 0 0 0 1 0 -0 0 1 3039.dat
0 H00073 ELEMENT 4211202 MODULE main-roof
1 70 360 -616 270 -1 0 0 0 1 0 -0 0 -1 3039.dat
0 H00074 ELEMENT 4211202 MODULE main-roof
1 70 400 -616 90 1 0 0 0 1 0 -0 0 1 3039.dat
0 H00075 ELEMENT 4211202 MODULE main-roof
1 70 400 -616 270 -1 0 0 0 1 0 -0 0 -1 3039.dat
0 H00076 ELEMENT 4211202 MODULE main-roof
1 70 440 -616 90 1 0 0 0 1 0 -0 0 1 3039.dat
0 H00077 ELEMENT 4211202 MODULE main-roof
1 70 440 -616 270 -1 0 0 0 1 0 -0 0 -1 3039.dat
0 H00078 ELEMENT 4211202 MODULE main-roof
1 70 480 -616 90 1 0 0 0 1 0 -0 0 1 3039.dat
0 H00079 ELEMENT 4211202 MODULE main-roof
1 70 480 -616 270 -1 0 0 0 1 0 -0 0 -1 3039.dat
0 H00080 ELEMENT 246526 MODULE main-roof
1 0 260 -616 110 1 0 0 0 1 0 -0 0 1 2465.dat
0 H00081 ELEMENT 6037390 MODULE main-roof
1 0 440 -616 180 0 0 1 0 1 0 -1 0 0 3007.dat
0 H00082 ELEMENT 246526 MODULE main-roof
1 0 260 -616 130 1 0 0 0 1 0 -0 0 1 2465.dat
0 H00083 ELEMENT 246526 MODULE main-roof
1 0 260 -616 150 1 0 0 0 1 0 -0 0 1 2465.dat
0 H00084 ELEMENT 6037390 MODULE main-roof
1 0 180 -616 180 1 0 0 0 1 0 -0 0 1 3007.dat
0 H00085 ELEMENT 6037384 MODULE main-roof
1 1 340 -616 180 1 0 0 0 1 0 -0 0 1 3007.dat
0 H00086 ELEMENT 6432006 MODULE main-roof
1 1 260 -616 210 1 0 0 0 1 0 -0 0 1 2465.dat
0 H00087 ELEMENT 6378410 MODULE main-roof
1 4 260 -616 230 1 0 0 0 1 0 -0 0 1 2465.dat
0 H00088 ELEMENT 6378410 MODULE main-roof
1 4 260 -616 250 1 0 0 0 1 0 -0 0 1 2465.dat
0 H00089 ELEMENT 4211247 MODULE main-roof
1 70 80 -600 160 0 0 1 0 1 0 -1 0 0 3795.dat
0 H00090 ELEMENT 4211247 MODULE main-roof
1 70 480 -600 160 0 0 1 0 1 0 -1 0 0 3795.dat
0 H00091 ELEMENT 4216695 MODULE main-roof
1 70 80 -600 240 1 0 0 0 1 0 -0 0 1 3022.dat
0 H00092 ELEMENT 4216695 MODULE main-roof
1 70 480 -600 240 1 0 0 0 1 0 -0 0 1 3022.dat
0 H00093 ELEMENT 4211186 MODULE main-roof
1 70 80 -608 140 0 0 1 0 1 0 -1 0 0 3020.dat
0 H00094 ELEMENT 4211186 MODULE main-roof
1 70 480 -608 140 0 0 1 0 1 0 -1 0 0 3020.dat
0 H00095 ELEMENT 4211186 MODULE main-roof
1 70 80 -608 220 0 0 1 0 1 0 -1 0 0 3020.dat
0 H00096 ELEMENT 4211186 MODULE main-roof
1 70 480 -608 220 0 0 1 0 1 0 -1 0 0 3020.dat
0 H00097 ELEMENT 4585337 MODULE main-roof
1 70 70 -616 180 0 0 1 0 1 0 -1 0 0 4162.dat
0 H00098 ELEMENT 4585337 MODULE main-roof
1 70 90 -616 180 0 0 1 0 1 0 -1 0 0 4162.dat
0 H00099 ELEMENT 4585337 MODULE main-roof
1 70 470 -616 180 0 0 1 0 1 0 -1 0 0 4162.dat
0 H00100 ELEMENT 4585337 MODULE main-roof
1 70 490 -616 180 0 0 1 0 1 0 -1 0 0 4162.dat
0 STEP
0 H00101 ELEMENT 4211202 MODULE main-roof
1 70 120 -640 130 1 0 0 0 1 0 -0 0 1 3039.dat
0 H00102 ELEMENT 4211202 MODULE main-roof
1 70 120 -640 230 -1 0 0 0 1 0 -0 0 -1 3039.dat
0 H00103 ELEMENT 4211202 MODULE main-roof
1 70 160 -640 130 1 0 0 0 1 0 -0 0 1 3039.dat
0 H00104 ELEMENT 4211202 MODULE main-roof
1 70 160 -640 230 -1 0 0 0 1 0 -0 0 -1 3039.dat
0 H00105 ELEMENT 4211202 MODULE main-roof
1 70 200 -640 130 1 0 0 0 1 0 -0 0 1 3039.dat
0 H00106 ELEMENT 4211202 MODULE main-roof
1 70 200 -640 230 -1 0 0 0 1 0 -0 0 -1 3039.dat
0 H00107 ELEMENT 4211202 MODULE main-roof
1 70 240 -640 130 1 0 0 0 1 0 -0 0 1 3039.dat
0 H00108 ELEMENT 4211202 MODULE main-roof
1 70 240 -640 230 -1 0 0 0 1 0 -0 0 -1 3039.dat
0 H00109 ELEMENT 4211202 MODULE main-roof
1 70 280 -640 130 1 0 0 0 1 0 -0 0 1 3039.dat
0 H00110 ELEMENT 4211202 MODULE main-roof
1 70 280 -640 230 -1 0 0 0 1 0 -0 0 -1 3039.dat
0 H00111 ELEMENT 4211202 MODULE main-roof
1 70 320 -640 130 1 0 0 0 1 0 -0 0 1 3039.dat
0 H00112 ELEMENT 4211202 MODULE main-roof
1 70 320 -640 230 -1 0 0 0 1 0 -0 0 -1 3039.dat
0 H00113 ELEMENT 4211202 MODULE main-roof
1 70 360 -640 130 1 0 0 0 1 0 -0 0 1 3039.dat
0 H00114 ELEMENT 4211202 MODULE main-roof
1 70 360 -640 230 -1 0 0 0 1 0 -0 0 -1 3039.dat
0 H00115 ELEMENT 4211202 MODULE main-roof
1 70 400 -640 130 1 0 0 0 1 0 -0 0 1 3039.dat
0 H00116 ELEMENT 4211202 MODULE main-roof
1 70 400 -640 230 -1 0 0 0 1 0 -0 0 -1 3039.dat
0 H00117 ELEMENT 4211202 MODULE main-roof
1 70 440 -640 130 1 0 0 0 1 0 -0 0 1 3039.dat
0 H00118 ELEMENT 4211202 MODULE main-roof
1 70 440 -640 230 -1 0 0 0 1 0 -0 0 -1 3039.dat
0 H00119 ELEMENT 4210798 MODULE main-roof
1 72 260 -640 150 1 0 0 0 1 0 -0 0 1 6112.dat
0 H00120 ELEMENT 4211085 MODULE main-roof
1 72 400 -640 180 0 0 1 0 1 0 -1 0 0 3001.dat
0 H00121 ELEMENT 4210798 MODULE main-roof
1 72 260 -640 170 1 0 0 0 1 0 -0 0 1 6112.dat
0 H00122 ELEMENT 4210798 MODULE main-roof
1 72 260 -640 190 1 0 0 0 1 0 -0 0 1 6112.dat
0 H00123 ELEMENT 4211522 MODULE main-roof
1 71 260 -640 210 1 0 0 0 1 0 -0 0 1 6112.dat
0 H00124 ELEMENT 4211186 MODULE main-roof
1 70 120 -624 180 0 0 1 0 1 0 -1 0 0 3020.dat
0 H00125 ELEMENT 4211186 MODULE main-roof
1 70 440 -624 180 0 0 1 0 1 0 -1 0 0 3020.dat
0 H00126 ELEMENT 4211186 MODULE main-roof
1 70 120 -632 180 0 0 1 0 1 0 -1 0 0 3020.dat
0 H00127 ELEMENT 4211186 MODULE main-roof
1 70 440 -632 180 0 0 1 0 1 0 -1 0 0 3020.dat
0 H00128 ELEMENT 4579690 MODULE main-roof
1 70 120 -640 180 0 0 1 0 1 0 -1 0 0 87079.dat
0 H00129 ELEMENT 4579690 MODULE main-roof
1 70 440 -640 180 0 0 1 0 1 0 -1 0 0 87079.dat
0 STEP
0 H00130 ELEMENT 4585337 MODULE main-roof
1 70 220 -648 150 1 0 0 0 1 0 -0 0 1 4162.dat
0 H00131 ELEMENT 4211204 MODULE main-roof
1 70 360 -648 150 1 0 0 0 1 0 -0 0 1 6636.dat
0 H00132 ELEMENT 4271949 MODULE main-roof
1 70 160 -648 180 1 0 0 0 1 0 -0 0 1 3068b.dat
0 H00133 ELEMENT 4585337 MODULE main-roof
1 70 300 -648 170 1 0 0 0 1 0 -0 0 1 4162.dat
0 H00134 ELEMENT 4271949 MODULE main-roof
1 70 400 -648 180 1 0 0 0 1 0 -0 0 1 3068b.dat
0 H00135 ELEMENT 4585337 MODULE main-roof
1 70 300 -648 190 1 0 0 0 1 0 -0 0 1 4162.dat
0 H00136 ELEMENT 4585337 MODULE main-roof
1 70 220 -648 210 1 0 0 0 1 0 -0 0 1 4162.dat
0 H00137 ELEMENT 4211204 MODULE main-roof
1 70 360 -648 210 1 0 0 0 1 0 -0 0 1 6636.dat
0 H00138 ELEMENT 4114306 MODULE main-roof
1 19 200 -664 180 1 0 0 0 1 0 -0 0 1 3003.dat
0 H00139 ELEMENT 4114306 MODULE main-roof
1 19 200 -688 180 1 0 0 0 1 0 -0 0 1 3003.dat
0 H00140 ELEMENT 4271949 MODULE main-roof
1 70 200 -696 180 1 0 0 0 1 0 -0 0 1 3068b.dat
