0 Fern & Steam - Courtyard Edition
0 Name: fern-and-steam-v2.ldr
0 Author: LEGO Tracker custom design
0 Unofficial model; physical build not tested.
0 Step 1: Foundation
0 P0001 ELEMENT 303626
1 0 60 -8 80 0 0 1 0 1 0 -1 0 0 3036.dat
0 P0002 ELEMENT 4210794
1 72 180 -8 80 0 0 1 0 1 0 -1 0 0 3036.dat
0 P0003 ELEMENT 303626
1 0 300 -8 80 0 0 1 0 1 0 -1 0 0 3036.dat
0 P0004 ELEMENT 4210794
1 72 420 -8 80 0 0 1 0 1 0 -1 0 0 3036.dat
0 P0005 ELEMENT 4210794
1 72 60 -8 240 0 0 1 0 1 0 -1 0 0 3036.dat
0 P0006 ELEMENT 303626
1 0 180 -8 240 0 0 1 0 1 0 -1 0 0 3036.dat
0 P0007 ELEMENT 4210794
1 72 300 -8 240 0 0 1 0 1 0 -1 0 0 3036.dat
0 P0008 ELEMENT 303626
1 0 420 -8 240 0 0 1 0 1 0 -1 0 0 3036.dat
0 P0009 ELEMENT 303626
1 0 60 -8 400 0 0 1 0 1 0 -1 0 0 3036.dat
0 P0010 ELEMENT 4210794
1 72 180 -8 400 0 0 1 0 1 0 -1 0 0 3036.dat
0 P0011 ELEMENT 303626
1 0 300 -8 400 0 0 1 0 1 0 -1 0 0 3036.dat
0 P0012 ELEMENT 4210794
1 72 420 -8 400 0 0 1 0 1 0 -1 0 0 3036.dat
0 STEP
0 Step 2: Lock the foundation
0 P0013 ELEMENT 303426
1 0 80 -16 20 1 0 0 0 1 0 -0 0 1 3034.dat
0 P0014 ELEMENT 303426
1 0 240 -16 20 1 0 0 0 1 0 -0 0 1 3034.dat
0 P0015 ELEMENT 303426
1 0 400 -16 20 1 0 0 0 1 0 -0 0 1 3034.dat
0 P0016 ELEMENT 4210997
1 72 160 -16 60 1 0 0 0 1 0 -0 0 1 3034.dat
0 P0017 ELEMENT 4210997
1 72 320 -16 60 1 0 0 0 1 0 -0 0 1 3034.dat
0 P0018 ELEMENT 302026
1 0 40 -16 60 1 0 0 0 1 0 -0 0 1 3020.dat
0 P0019 ELEMENT 302026
1 0 440 -16 60 1 0 0 0 1 0 -0 0 1 3020.dat
0 P0020 ELEMENT 303426
1 0 80 -16 100 1 0 0 0 1 0 -0 0 1 3034.dat
0 P0021 ELEMENT 303426
1 0 240 -16 100 1 0 0 0 1 0 -0 0 1 3034.dat
0 P0022 ELEMENT 303426
1 0 400 -16 100 1 0 0 0 1 0 -0 0 1 3034.dat
0 P0023 ELEMENT 4210997
1 72 160 -16 140 1 0 0 0 1 0 -0 0 1 3034.dat
0 P0024 ELEMENT 4210997
1 72 320 -16 140 1 0 0 0 1 0 -0 0 1 3034.dat
0 P0025 ELEMENT 302026
1 0 40 -16 140 1 0 0 0 1 0 -0 0 1 3020.dat
0 P0026 ELEMENT 302026
1 0 440 -16 140 1 0 0 0 1 0 -0 0 1 3020.dat
0 P0027 ELEMENT 303426
1 0 80 -16 180 1 0 0 0 1 0 -0 0 1 3034.dat
0 P0028 ELEMENT 303426
1 0 240 -16 180 1 0 0 0 1 0 -0 0 1 3034.dat
0 P0029 ELEMENT 303426
1 0 400 -16 180 1 0 0 0 1 0 -0 0 1 3034.dat
0 P0030 ELEMENT 4210997
1 72 160 -16 220 1 0 0 0 1 0 -0 0 1 3034.dat
0 P0031 ELEMENT 4210997
1 72 320 -16 220 1 0 0 0 1 0 -0 0 1 3034.dat
0 P0032 ELEMENT 302026
1 0 40 -16 220 1 0 0 0 1 0 -0 0 1 3020.dat
0 P0033 ELEMENT 302026
1 0 440 -16 220 1 0 0 0 1 0 -0 0 1 3020.dat
0 P0034 ELEMENT 303426
1 0 80 -16 260 1 0 0 0 1 0 -0 0 1 3034.dat
0 P0035 ELEMENT 303426
1 0 240 -16 260 1 0 0 0 1 0 -0 0 1 3034.dat
0 P0036 ELEMENT 303426
1 0 400 -16 260 1 0 0 0 1 0 -0 0 1 3034.dat
0 P0037 ELEMENT 4210997
1 72 160 -16 300 1 0 0 0 1 0 -0 0 1 3034.dat
0 P0038 ELEMENT 4210997
1 72 320 -16 300 1 0 0 0 1 0 -0 0 1 3034.dat
0 P0039 ELEMENT 302026
1 0 40 -16 300 1 0 0 0 1 0 -0 0 1 3020.dat
0 P0040 ELEMENT 302026
1 0 440 -16 300 1 0 0 0 1 0 -0 0 1 3020.dat
0 P0041 ELEMENT 303426
1 0 80 -16 340 1 0 0 0 1 0 -0 0 1 3034.dat
0 P0042 ELEMENT 303426
1 0 240 -16 340 1 0 0 0 1 0 -0 0 1 3034.dat
0 P0043 ELEMENT 303426
1 0 400 -16 340 1 0 0 0 1 0 -0 0 1 3034.dat
0 P0044 ELEMENT 4210997
1 72 160 -16 380 1 0 0 0 1 0 -0 0 1 3034.dat
0 P0045 ELEMENT 4210997
1 72 320 -16 380 1 0 0 0 1 0 -0 0 1 3034.dat
0 P0046 ELEMENT 302026
1 0 40 -16 380 1 0 0 0 1 0 -0 0 1 3020.dat
0 P0047 ELEMENT 302026
1 0 440 -16 380 1 0 0 0 1 0 -0 0 1 3020.dat
0 P0048 ELEMENT 303426
1 0 80 -16 420 1 0 0 0 1 0 -0 0 1 3034.dat
0 P0049 ELEMENT 303426
1 0 240 -16 420 1 0 0 0 1 0 -0 0 1 3034.dat
0 P0050 ELEMENT 4210997
1 72 400 -16 420 1 0 0 0 1 0 -0 0 1 3034.dat
0 P0051 ELEMENT 4210997
1 72 160 -16 460 1 0 0 0 1 0 -0 0 1 3034.dat
0 P0052 ELEMENT 4210997
1 72 320 -16 460 1 0 0 0 1 0 -0 0 1 3034.dat
0 P0053 ELEMENT 302026
1 0 40 -16 460 1 0 0 0 1 0 -0 0 1 3020.dat
0 P0054 ELEMENT 302026
1 0 440 -16 460 1 0 0 0 1 0 -0 0 1 3020.dat
0 STEP
0 Step 3: Paved courtyard
0 P0055 ELEMENT 4560183
1 71 40 -24 20 1 0 0 0 1 0 -0 0 1 87079.dat
0 P0056 ELEMENT 4560183
1 71 120 -24 20 1 0 0 0 1 0 -0 0 1 87079.dat
0 P0057 ELEMENT 4560183
1 71 200 -24 20 1 0 0 0 1 0 -0 0 1 87079.dat
0 P0058 ELEMENT 4560183
1 71 280 -24 20 1 0 0 0 1 0 -0 0 1 87079.dat
0 P0059 ELEMENT 4560183
1 71 360 -24 20 1 0 0 0 1 0 -0 0 1 87079.dat
0 P0060 ELEMENT 4560183
1 71 440 -24 20 1 0 0 0 1 0 -0 0 1 87079.dat
0 P0061 ELEMENT 4560183
1 71 40 -24 60 1 0 0 0 1 0 -0 0 1 87079.dat
0 P0062 ELEMENT 4560183
1 71 120 -24 60 1 0 0 0 1 0 -0 0 1 87079.dat
0 P0063 ELEMENT 4560183
1 71 200 -24 60 1 0 0 0 1 0 -0 0 1 87079.dat
0 P0064 ELEMENT 4560183
1 71 280 -24 60 1 0 0 0 1 0 -0 0 1 87079.dat
0 P0065 ELEMENT 4560183
1 71 360 -24 60 1 0 0 0 1 0 -0 0 1 87079.dat
0 P0066 ELEMENT 4560183
1 71 440 -24 60 1 0 0 0 1 0 -0 0 1 87079.dat
0 P0067 ELEMENT 4211481
1 71 10 -24 160 0 0 1 0 1 0 -1 0 0 4162.dat
0 P0068 ELEMENT 4211413
1 71 40 -24 100 0 0 1 0 1 0 -1 0 0 3068b.dat
0 P0069 ELEMENT 4211413
1 71 440 -24 100 0 0 1 0 1 0 -1 0 0 3068b.dat
0 P0070 ELEMENT 4211481
1 71 470 -24 160 0 0 1 0 1 0 -1 0 0 4162.dat
0 P0071 ELEMENT 4211414
1 71 440 -24 130 1 0 0 0 1 0 -0 0 1 3069b.dat
0 P0072 ELEMENT 4560183
1 71 40 -24 240 0 0 1 0 1 0 -1 0 0 87079.dat
0 P0073 ELEMENT 4560183
1 71 440 -24 260 0 0 1 0 1 0 -1 0 0 87079.dat
0 P0074 ELEMENT 4211481
1 71 10 -24 320 0 0 1 0 1 0 -1 0 0 4162.dat
0 P0075 ELEMENT 4211481
1 71 470 -24 320 0 0 1 0 1 0 -1 0 0 4162.dat
0 P0076 ELEMENT 4560183
1 71 100 -24 280 1 0 0 0 1 0 -0 0 1 87079.dat
0 P0077 ELEMENT 4211481
1 71 150 -24 340 0 0 1 0 1 0 -1 0 0 4162.dat
0 P0078 ELEMENT 4211413
1 71 180 -24 280 0 0 1 0 1 0 -1 0 0 3068b.dat
0 P0079 ELEMENT 4560183
1 71 320 -24 280 1 0 0 0 1 0 -0 0 1 87079.dat
0 P0080 ELEMENT 4560183
1 71 380 -24 300 0 0 1 0 1 0 -1 0 0 87079.dat
0 P0081 ELEMENT 4211414
1 71 410 -24 280 0 0 1 0 1 0 -1 0 0 3069b.dat
0 P0082 ELEMENT 4211414
1 71 40 -24 290 1 0 0 0 1 0 -0 0 1 3069b.dat
0 P0083 ELEMENT 4560183
1 71 100 -24 320 1 0 0 0 1 0 -0 0 1 87079.dat
0 P0084 ELEMENT 4211481
1 71 240 -24 310 1 0 0 0 1 0 -0 0 1 4162.dat
0 P0085 ELEMENT 4211481
1 71 330 -24 380 0 0 1 0 1 0 -1 0 0 4162.dat
0 P0086 ELEMENT 4211414
1 71 350 -24 320 0 0 1 0 1 0 -1 0 0 3069b.dat
0 P0087 ELEMENT 4211414
1 71 420 -24 310 1 0 0 0 1 0 -0 0 1 3069b.dat
0 P0088 ELEMENT 4211481
1 71 450 -24 380 0 0 1 0 1 0 -1 0 0 4162.dat
0 P0089 ELEMENT 4560183
1 71 220 -24 340 1 0 0 0 1 0 -0 0 1 87079.dat
0 P0090 ELEMENT 4211481
1 71 290 -24 400 0 0 1 0 1 0 -1 0 0 4162.dat
0 P0091 ELEMENT 4211481
1 71 310 -24 400 0 0 1 0 1 0 -1 0 0 4162.dat
0 P0092 ELEMENT 4211356
1 71 100 -24 350 1 0 0 0 1 0 -0 0 1 2431.dat
0 P0093 ELEMENT 4211414
1 71 360 -24 350 1 0 0 0 1 0 -0 0 1 3069b.dat
0 P0094 ELEMENT 4211549
1 71 390 -24 400 0 0 1 0 1 0 -1 0 0 6636.dat
0 P0095 ELEMENT 4211356
1 71 100 -24 370 1 0 0 0 1 0 -0 0 1 2431.dat
0 P0096 ELEMENT 4211549
1 71 220 -24 370 1 0 0 0 1 0 -0 0 1 6636.dat
0 P0097 ELEMENT 4211356
1 71 30 -24 420 0 0 1 0 1 0 -1 0 0 2431.dat
0 P0098 ELEMENT 4211356
1 71 50 -24 420 0 0 1 0 1 0 -1 0 0 2431.dat
0 P0099 ELEMENT 4211549
1 71 220 -24 390 1 0 0 0 1 0 -0 0 1 6636.dat
0 P0100 ELEMENT 4211356
1 71 10 -24 440 0 0 1 0 1 0 -1 0 0 2431.dat
0 P0101 ELEMENT 4211549
1 71 220 -24 410 1 0 0 0 1 0 -0 0 1 6636.dat
0 P0102 ELEMENT 4211356
1 71 350 -24 440 0 0 1 0 1 0 -1 0 0 2431.dat
0 P0103 ELEMENT 4211356
1 71 370 -24 440 0 0 1 0 1 0 -1 0 0 2431.dat
0 P0104 ELEMENT 4211356
1 71 410 -24 440 0 0 1 0 1 0 -1 0 0 2431.dat
0 P0105 ELEMENT 4211356
1 71 430 -24 440 0 0 1 0 1 0 -1 0 0 2431.dat
0 P0106 ELEMENT 4211356
1 71 470 -24 440 0 0 1 0 1 0 -1 0 0 2431.dat
0 P0107 ELEMENT 4211481
1 71 140 -24 430 1 0 0 0 1 0 -0 0 1 4162.dat
0 P0108 ELEMENT 4211413
1 71 240 -24 440 0 0 1 0 1 0 -1 0 0 3068b.dat
0 P0109 ELEMENT 4211414
1 71 270 -24 440 0 0 1 0 1 0 -1 0 0 3069b.dat
0 P0110 ELEMENT 4211481
1 71 140 -24 450 1 0 0 0 1 0 -0 0 1 4162.dat
0 P0111 ELEMENT 4211481
1 71 100 -24 470 1 0 0 0 1 0 -0 0 1 4162.dat
0 P0112 ELEMENT 4211356
1 71 220 -24 470 1 0 0 0 1 0 -0 0 1 2431.dat
0 P0113 ELEMENT 4211415
1 71 270 -24 470 0 0 1 0 1 0 -1 0 0 3070b.dat
0 P0114 ELEMENT 4211415
1 71 330 -24 470 0 0 1 0 1 0 -1 0 0 3070b.dat
0 P0115 ELEMENT 4211415
1 71 390 -24 470 0 0 1 0 1 0 -1 0 0 3070b.dat
0 P0116 ELEMENT 4211415
1 71 450 -24 470 0 0 1 0 1 0 -1 0 0 3070b.dat
0 P0117 ELEMENT 6122047
1 19 120 -24 120 1 0 0 0 1 0 -0 0 1 87079.dat
0 P0118 ELEMENT 6122047
1 19 200 -24 120 1 0 0 0 1 0 -0 0 1 87079.dat
0 P0119 ELEMENT 6122047
1 19 280 -24 120 1 0 0 0 1 0 -0 0 1 87079.dat
0 P0120 ELEMENT 6122047
1 19 360 -24 120 1 0 0 0 1 0 -0 0 1 87079.dat
0 P0121 ELEMENT 6122047
1 19 120 -24 160 1 0 0 0 1 0 -0 0 1 87079.dat
0 P0122 ELEMENT 6122047
1 19 200 -24 160 1 0 0 0 1 0 -0 0 1 87079.dat
0 P0123 ELEMENT 6122047
1 19 280 -24 160 1 0 0 0 1 0 -0 0 1 87079.dat
0 P0124 ELEMENT 6122047
1 19 360 -24 160 1 0 0 0 1 0 -0 0 1 87079.dat
0 P0125 ELEMENT 6122047
1 19 120 -24 200 1 0 0 0 1 0 -0 0 1 87079.dat
0 P0126 ELEMENT 6122047
1 19 200 -24 200 1 0 0 0 1 0 -0 0 1 87079.dat
0 P0127 ELEMENT 6122047
1 19 280 -24 200 1 0 0 0 1 0 -0 0 1 87079.dat
0 P0128 ELEMENT 4550324
1 19 360 -24 190 1 0 0 0 1 0 -0 0 1 2431.dat
0 P0129 ELEMENT 4157277
1 19 140 -24 230 1 0 0 0 1 0 -0 0 1 6636.dat
0 P0130 ELEMENT 4114026
1 19 300 -24 230 1 0 0 0 1 0 -0 0 1 3069b.dat
0 STEP
0 Step 4: Window sills and pillars
0 P0131 ELEMENT 4113915
1 19 70 -40 250 1 0 0 0 1 0 -0 0 1 3005.dat
0 P0132 ELEMENT 4113915
1 19 170 -40 250 1 0 0 0 1 0 -0 0 1 3005.dat
0 P0133 ELEMENT 4113915
1 19 70 -64 250 1 0 0 0 1 0 -0 0 1 3005.dat
0 P0134 ELEMENT 4113915
1 19 170 -64 250 1 0 0 0 1 0 -0 0 1 3005.dat
0 P0135 ELEMENT 4113915
1 19 70 -88 250 1 0 0 0 1 0 -0 0 1 3005.dat
0 P0136 ELEMENT 4113915
1 19 170 -88 250 1 0 0 0 1 0 -0 0 1 3005.dat
0 P0137 ELEMENT 4113915
1 19 70 -112 250 1 0 0 0 1 0 -0 0 1 3005.dat
0 P0138 ELEMENT 4113915
1 19 170 -112 250 1 0 0 0 1 0 -0 0 1 3005.dat
0 P0139 ELEMENT 4113915
1 19 70 -136 250 1 0 0 0 1 0 -0 0 1 3005.dat
0 P0140 ELEMENT 4113915
1 19 170 -136 250 1 0 0 0 1 0 -0 0 1 3005.dat
0 P0141 ELEMENT 4113915
1 19 70 -160 250 1 0 0 0 1 0 -0 0 1 3005.dat
0 P0142 ELEMENT 4113915
1 19 170 -160 250 1 0 0 0 1 0 -0 0 1 3005.dat
0 P0143 ELEMENT 4113915
1 19 70 -184 250 1 0 0 0 1 0 -0 0 1 3005.dat
0 P0144 ELEMENT 4113915
1 19 170 -184 250 1 0 0 0 1 0 -0 0 1 3005.dat
0 P0145 ELEMENT 4113915
1 19 70 -208 250 1 0 0 0 1 0 -0 0 1 3005.dat
0 P0146 ELEMENT 4113915
1 19 170 -208 250 1 0 0 0 1 0 -0 0 1 3005.dat
0 P0147 ELEMENT 300901
1 15 240 -40 250 1 0 0 0 1 0 -0 0 1 3009.dat
0 P0148 ELEMENT 300901
1 15 360 -40 250 1 0 0 0 1 0 -0 0 1 3009.dat
0 P0149 ELEMENT 301001
1 15 70 -40 120 0 0 1 0 1 0 -1 0 0 3010.dat
0 P0150 ELEMENT 301001
1 15 70 -40 200 0 0 1 0 1 0 -1 0 0 3010.dat
0 P0151 ELEMENT 301001
1 15 410 -40 120 0 0 1 0 1 0 -1 0 0 3010.dat
0 P0152 ELEMENT 301001
1 15 410 -40 200 0 0 1 0 1 0 -1 0 0 3010.dat
0 P0153 ELEMENT 300901
1 15 140 -40 90 1 0 0 0 1 0 -0 0 1 3009.dat
0 P0154 ELEMENT 300901
1 15 340 -40 90 1 0 0 0 1 0 -0 0 1 3009.dat
0 P0155 ELEMENT 301001
1 15 240 -40 90 1 0 0 0 1 0 -0 0 1 3010.dat
0 P0156 ELEMENT 301001
1 15 240 -40 230 1 0 0 0 1 0 -0 0 1 3010.dat
0 STEP
0 Step 5: Lower glazing
0 P0157 ELEMENT 4530590
1 15 70 -112 120 0 0 1 0 1 0 -1 0 0 60594.dat
0 P0158 ELEMENT 6514142
1 47 74 -104 120 0 0 1 0 1 0 -1 0 0 86210.dat
0 P0162 ELEMENT 4530590
1 15 70 -112 200 0 0 1 0 1 0 -1 0 0 60594.dat
0 P0163 ELEMENT 6514142
1 47 74 -104 200 0 0 1 0 1 0 -1 0 0 86210.dat
0 P0167 ELEMENT 4530590
1 15 410 -112 120 0 0 1 0 1 0 -1 0 0 60594.dat
0 P0168 ELEMENT 6514142
1 47 414 -104 120 0 0 1 0 1 0 -1 0 0 86210.dat
0 P0172 ELEMENT 4530590
1 15 410 -112 200 0 0 1 0 1 0 -1 0 0 60594.dat
0 P0173 ELEMENT 6514142
1 47 414 -104 200 0 0 1 0 1 0 -1 0 0 86210.dat
0 P0177 ELEMENT 6256127
1 15 140 -184 90 1 0 0 0 1 0 -0 0 1 42205.dat
0 P0178 ELEMENT 6511024
1 47 140 -179.5 95 1 0 0 0 1 0 -0 0 1 42509.dat
0 P0180 ELEMENT 6256127
1 15 340 -184 90 1 0 0 0 1 0 -0 0 1 42205.dat
0 P0181 ELEMENT 6511024
1 47 340 -179.5 95 1 0 0 0 1 0 -0 0 1 42509.dat
0 P0183 ELEMENT 4530590
1 15 240 -112 90 1 0 0 0 1 0 -0 0 1 60594.dat
0 P0184 ELEMENT 6514142
1 47 240 -104 94 1 0 0 0 1 0 -0 0 1 86210.dat
0 P0188 ELEMENT 4530590
1 15 240 -112 230 1 0 0 0 1 0 -0 0 1 60594.dat
0 P0189 ELEMENT 6514142
1 47 240 -104 234 1 0 0 0 1 0 -0 0 1 86210.dat
0 STEP
0 Step 6: Upper glazing and entrance
0 P0159 ELEMENT 4530590
1 15 70 -184 120 0 0 1 0 1 0 -1 0 0 60594.dat
0 P0160 ELEMENT 6514142
1 47 74 -176 120 0 0 1 0 1 0 -1 0 0 86210.dat
0 P0161 ELEMENT 301001
1 15 70 -208 120 0 0 1 0 1 0 -1 0 0 3010.dat
0 P0164 ELEMENT 4530590
1 15 70 -184 200 0 0 1 0 1 0 -1 0 0 60594.dat
0 P0165 ELEMENT 6514142
1 47 74 -176 200 0 0 1 0 1 0 -1 0 0 86210.dat
0 P0166 ELEMENT 301001
1 15 70 -208 200 0 0 1 0 1 0 -1 0 0 3010.dat
0 P0169 ELEMENT 4530590
1 15 410 -184 120 0 0 1 0 1 0 -1 0 0 60594.dat
0 P0170 ELEMENT 6514142
1 47 414 -176 120 0 0 1 0 1 0 -1 0 0 86210.dat
0 P0171 ELEMENT 301001
1 15 410 -208 120 0 0 1 0 1 0 -1 0 0 3010.dat
0 P0174 ELEMENT 4530590
1 15 410 -184 200 0 0 1 0 1 0 -1 0 0 60594.dat
0 P0175 ELEMENT 6514142
1 47 414 -176 200 0 0 1 0 1 0 -1 0 0 86210.dat
0 P0176 ELEMENT 301001
1 15 410 -208 200 0 0 1 0 1 0 -1 0 0 3010.dat
0 P0179 ELEMENT 300901
1 15 140 -208 90 1 0 0 0 1 0 -0 0 1 3009.dat
0 P0182 ELEMENT 300901
1 15 340 -208 90 1 0 0 0 1 0 -0 0 1 3009.dat
0 P0185 ELEMENT 4530590
1 15 240 -184 90 1 0 0 0 1 0 -0 0 1 60594.dat
0 P0186 ELEMENT 6514142
1 47 240 -176 94 1 0 0 0 1 0 -0 0 1 86210.dat
0 P0187 ELEMENT 301001
1 15 240 -208 90 1 0 0 0 1 0 -0 0 1 3010.dat
0 P0190 ELEMENT 4530590
1 15 240 -184 230 1 0 0 0 1 0 -0 0 1 60594.dat
0 P0191 ELEMENT 6514142
1 47 240 -176 234 1 0 0 0 1 0 -0 0 1 86210.dat
0 P0192 ELEMENT 301001
1 15 240 -208 230 1 0 0 0 1 0 -0 0 1 3010.dat
0 P0193 ELEMENT 6262945
1 15 120 -160 250 1 0 0 0 1 0 -0 0 1 60596.dat
0 P0194 ELEMENT 6514119
1 47 88 -160 255 1 0 0 0 1 0 -0 0 1 60616a.dat
0 STEP
0 Step 7: Cafe counter
0 P0277 ELEMENT 4211225
1 70 360 -40 210 1 0 0 0 1 0 -0 0 1 3010.dat
0 P0278 ELEMENT 4245571
1 288 360 -40 230 1 0 0 0 1 0 -0 0 1 3010.dat
0 P0279 ELEMENT 4211225
1 70 360 -64 210 1 0 0 0 1 0 -0 0 1 3010.dat
0 P0280 ELEMENT 4245571
1 288 360 -64 230 1 0 0 0 1 0 -0 0 1 3010.dat
0 P0281 ELEMENT 4211186
1 70 360 -72 220 1 0 0 0 1 0 -0 0 1 3020.dat
0 P0282 ELEMENT 4211151
1 70 340 -80 230 1 0 0 0 1 0 -0 0 1 3069b.dat
0 P0283 ELEMENT 4211151
1 70 380 -80 230 1 0 0 0 1 0 -0 0 1 3069b.dat
0 P0284 ELEMENT 4659665
1 15 390 -96 210 -1 0 0 0 1 0 -0 0 -1 3899.dat
0 STEP
0 Step 8: Arched facade
0 P0195 ELEMENT 6031057
1 19 120 -208 250 1 0 0 0 1 0 -0 0 1 6182.dat
0 P0196 ELEMENT 6249033
1 15 240 -208 250 1 0 0 0 1 0 -0 0 1 40066.dat
0 P0197 ELEMENT 300501
1 15 190 -208 250 1 0 0 0 1 0 -0 0 1 3005.dat
0 P0198 ELEMENT 300501
1 15 290 -208 250 1 0 0 0 1 0 -0 0 1 3005.dat
0 P0199 ELEMENT 6249033
1 15 360 -208 250 1 0 0 0 1 0 -0 0 1 40066.dat
0 P0200 ELEMENT 300501
1 15 310 -208 250 1 0 0 0 1 0 -0 0 1 3005.dat
0 P0201 ELEMENT 300501
1 15 410 -208 250 1 0 0 0 1 0 -0 0 1 3005.dat
0 STEP
0 Step 9: Roof cornice
0 P0202 ELEMENT 366601
1 15 120 -216 90 1 0 0 0 1 0 -0 0 1 3666.dat
0 P0203 ELEMENT 366601
1 15 240 -216 90 1 0 0 0 1 0 -0 0 1 3666.dat
0 P0204 ELEMENT 366601
1 15 360 -216 90 1 0 0 0 1 0 -0 0 1 3666.dat
0 P0205 ELEMENT 366601
1 15 120 -216 250 1 0 0 0 1 0 -0 0 1 3666.dat
0 P0206 ELEMENT 366601
1 15 240 -216 250 1 0 0 0 1 0 -0 0 1 3666.dat
0 P0207 ELEMENT 366601
1 15 360 -216 250 1 0 0 0 1 0 -0 0 1 3666.dat
0 P0208 ELEMENT 366601
1 15 70 -216 160 0 0 1 0 1 0 -1 0 0 3666.dat
0 P0209 ELEMENT 366601
1 15 410 -216 160 0 0 1 0 1 0 -1 0 0 3666.dat
0 P0210 ELEMENT 379501
1 15 120 -224 80 1 0 0 0 1 0 -0 0 1 3795.dat
0 P0211 ELEMENT 379501
1 15 240 -224 80 1 0 0 0 1 0 -0 0 1 3795.dat
0 P0212 ELEMENT 379501
1 15 360 -224 80 1 0 0 0 1 0 -0 0 1 3795.dat
0 P0213 ELEMENT 379501
1 15 120 -224 240 1 0 0 0 1 0 -0 0 1 3795.dat
0 P0214 ELEMENT 379501
1 15 240 -224 240 1 0 0 0 1 0 -0 0 1 3795.dat
0 P0215 ELEMENT 379501
1 15 360 -224 240 1 0 0 0 1 0 -0 0 1 3795.dat
0 P0216 ELEMENT 379501
1 15 80 -224 160 0 0 1 0 1 0 -1 0 0 3795.dat
0 P0217 ELEMENT 379501
1 15 400 -224 160 0 0 1 0 1 0 -1 0 0 3795.dat
0 STEP
0 Step 10: Lantern support frame
0 P0218 ELEMENT 366601
1 15 70 -232 160 0 0 1 0 1 0 -1 0 0 3666.dat
0 P0219 ELEMENT 379501
1 15 100 -232 160 0 0 1 0 1 0 -1 0 0 3795.dat
0 P0220 ELEMENT 379501
1 15 380 -232 160 0 0 1 0 1 0 -1 0 0 3795.dat
0 P0221 ELEMENT 366601
1 15 410 -232 160 0 0 1 0 1 0 -1 0 0 3666.dat
0 P0222 ELEMENT 366601
1 15 120 -232 70 1 0 0 0 1 0 -0 0 1 3666.dat
0 P0223 ELEMENT 366601
1 15 240 -232 70 1 0 0 0 1 0 -0 0 1 3666.dat
0 P0224 ELEMENT 366601
1 15 360 -232 70 1 0 0 0 1 0 -0 0 1 3666.dat
0 P0225 ELEMENT 366601
1 15 120 -232 250 1 0 0 0 1 0 -0 0 1 3666.dat
0 P0226 ELEMENT 366601
1 15 240 -232 250 1 0 0 0 1 0 -0 0 1 3666.dat
0 P0227 ELEMENT 366601
1 15 360 -232 250 1 0 0 0 1 0 -0 0 1 3666.dat
0 P0228 ELEMENT 302326
1 0 80 -232 90 1 0 0 0 1 0 -0 0 1 3023b.dat
0 P0229 ELEMENT 302326
1 0 80 -232 230 1 0 0 0 1 0 -0 0 1 3023b.dat
0 P0230 ELEMENT 302326
1 0 380 -232 90 1 0 0 0 1 0 -0 0 1 3023b.dat
0 P0231 ELEMENT 302326
1 0 380 -232 230 1 0 0 0 1 0 -0 0 1 3023b.dat
0 P0232 ELEMENT 379526
1 0 180 -232 100 1 0 0 0 1 0 -0 0 1 3795.dat
0 P0233 ELEMENT 379526
1 0 300 -232 100 1 0 0 0 1 0 -0 0 1 3795.dat
0 P0234 ELEMENT 379526
1 0 180 -232 220 1 0 0 0 1 0 -0 0 1 3795.dat
0 P0235 ELEMENT 379526
1 0 300 -232 220 1 0 0 0 1 0 -0 0 1 3795.dat
0 P0236 ELEMENT 371026
1 0 130 -232 160 0 0 1 0 1 0 -1 0 0 3710.dat
0 P0237 ELEMENT 371026
1 0 350 -232 160 0 0 1 0 1 0 -1 0 0 3710.dat
0 P0238 ELEMENT 379526
1 0 140 -224 160 0 0 1 0 1 0 -1 0 0 3795.dat
0 P0239 ELEMENT 379526
1 0 240 -224 160 0 0 1 0 1 0 -1 0 0 3795.dat
0 P0240 ELEMENT 379526
1 0 340 -224 160 0 0 1 0 1 0 -1 0 0 3795.dat
0 P0241 ELEMENT 371026
1 0 230 -232 160 0 0 1 0 1 0 -1 0 0 3710.dat
0 P0242 ELEMENT 371026
1 0 250 -232 160 0 0 1 0 1 0 -1 0 0 3710.dat
0 P0243 ELEMENT 663601
1 15 120 -240 70 1 0 0 0 1 0 -0 0 1 6636.dat
0 P0244 ELEMENT 663601
1 15 240 -240 70 1 0 0 0 1 0 -0 0 1 6636.dat
0 P0245 ELEMENT 663601
1 15 360 -240 70 1 0 0 0 1 0 -0 0 1 6636.dat
0 P0246 ELEMENT 663601
1 15 120 -240 90 1 0 0 0 1 0 -0 0 1 6636.dat
0 P0247 ELEMENT 663601
1 15 240 -240 90 1 0 0 0 1 0 -0 0 1 6636.dat
0 P0248 ELEMENT 663601
1 15 360 -240 90 1 0 0 0 1 0 -0 0 1 6636.dat
0 P0249 ELEMENT 663601
1 15 120 -240 230 1 0 0 0 1 0 -0 0 1 6636.dat
0 P0250 ELEMENT 663601
1 15 240 -240 230 1 0 0 0 1 0 -0 0 1 6636.dat
0 P0251 ELEMENT 663601
1 15 360 -240 230 1 0 0 0 1 0 -0 0 1 6636.dat
0 P0252 ELEMENT 663601
1 15 120 -240 250 1 0 0 0 1 0 -0 0 1 6636.dat
0 P0253 ELEMENT 663601
1 15 240 -240 250 1 0 0 0 1 0 -0 0 1 6636.dat
0 P0254 ELEMENT 663601
1 15 360 -240 250 1 0 0 0 1 0 -0 0 1 6636.dat
0 P0255 ELEMENT 663601
1 15 70 -240 160 0 0 1 0 1 0 -1 0 0 6636.dat
0 P0256 ELEMENT 663601
1 15 90 -240 160 0 0 1 0 1 0 -1 0 0 6636.dat
0 P0257 ELEMENT 663601
1 15 110 -240 160 0 0 1 0 1 0 -1 0 0 6636.dat
0 P0258 ELEMENT 663601
1 15 370 -240 160 0 0 1 0 1 0 -1 0 0 6636.dat
0 P0259 ELEMENT 663601
1 15 390 -240 160 0 0 1 0 1 0 -1 0 0 6636.dat
0 P0260 ELEMENT 663601
1 15 410 -240 160 0 0 1 0 1 0 -1 0 0 6636.dat
0 STEP
0 Step 11: Glass roof
0 P0261 ELEMENT 6503221
1 47 180 -280 150 1 0 0 0 1 0 -0 0 1 92583.dat
0 P0262 ELEMENT 6503221
1 47 180 -280 170 -1 0 0 0 1 0 -0 0 -1 92583.dat
0 P0263 ELEMENT 6503221
1 47 300 -280 150 1 0 0 0 1 0 -0 0 1 92583.dat
0 P0264 ELEMENT 6503221
1 47 300 -280 170 -1 0 0 0 1 0 -0 0 -1 92583.dat
0 P0265 ELEMENT 379526
1 0 180 -288 160 1 0 0 0 1 0 -0 0 1 3795.dat
0 P0266 ELEMENT 379526
1 0 300 -288 160 1 0 0 0 1 0 -0 0 1 3795.dat
0 P0267 ELEMENT 371026
1 0 160 -296 150 1 0 0 0 1 0 -0 0 1 3710.dat
0 P0268 ELEMENT 371026
1 0 240 -296 150 1 0 0 0 1 0 -0 0 1 3710.dat
0 P0269 ELEMENT 371026
1 0 320 -296 150 1 0 0 0 1 0 -0 0 1 3710.dat
0 P0270 ELEMENT 663626
1 0 180 -304 150 1 0 0 0 1 0 -0 0 1 6636.dat
0 P0271 ELEMENT 663626
1 0 300 -304 150 1 0 0 0 1 0 -0 0 1 6636.dat
0 P0272 ELEMENT 371026
1 0 160 -296 170 1 0 0 0 1 0 -0 0 1 3710.dat
0 P0273 ELEMENT 371026
1 0 240 -296 170 1 0 0 0 1 0 -0 0 1 3710.dat
0 P0274 ELEMENT 371026
1 0 320 -296 170 1 0 0 0 1 0 -0 0 1 3710.dat
0 P0275 ELEMENT 663626
1 0 180 -304 170 1 0 0 0 1 0 -0 0 1 6636.dat
0 P0276 ELEMENT 663626
1 0 300 -304 170 1 0 0 0 1 0 -0 0 1 6636.dat
0 STEP
0 Step 12: Bench and bistro table
0 P0285 ELEMENT 4211388
1 71 170 -40 340 0 0 1 0 1 0 -1 0 0 3004.dat
0 P0286 ELEMENT 4211388
1 71 270 -40 340 0 0 1 0 1 0 -1 0 0 3004.dat
0 P0287 ELEMENT 4211247
1 70 220 -48 340 1 0 0 0 1 0 -0 0 1 3795.dat
0 P0288 ELEMENT 4211149
1 70 180 -72 330 1 0 0 0 1 0 -0 0 1 3004.dat
0 P0289 ELEMENT 4211149
1 70 260 -72 330 1 0 0 0 1 0 -0 0 1 3004.dat
0 P0290 ELEMENT 4211149
1 70 220 -72 330 1 0 0 0 1 0 -0 0 1 3004.dat
0 P0291 ELEMENT 4211204
1 70 220 -80 330 1 0 0 0 1 0 -0 0 1 6636.dat
0 P0292 ELEMENT 4211204
1 70 220 -56 350 1 0 0 0 1 0 -0 0 1 6636.dat
0 P0293 ELEMENT 300301
1 15 360 -40 380 1 0 0 0 1 0 -0 0 1 3003.dat
0 P0294 ELEMENT 4216695
1 70 360 -48 380 1 0 0 0 1 0 -0 0 1 3022.dat
0 STEP
0 Step 13: Raised garden beds
0 P0296 ELEMENT 4211201
1 70 40 -40 340 0 0 1 0 1 0 -1 0 0 3001.dat
0 P0297 ELEMENT 4211186
1 70 40 -48 340 0 0 1 0 1 0 -1 0 0 3020.dat
0 P0306 ELEMENT 4211201
1 70 100 -40 400 1 0 0 0 1 0 -0 0 1 3001.dat
0 P0307 ELEMENT 4211186
1 70 100 -48 400 1 0 0 0 1 0 -0 0 1 3020.dat
0 P0314 ELEMENT 4211201
1 70 420 -40 360 0 0 1 0 1 0 -1 0 0 3001.dat
0 P0315 ELEMENT 4211186
1 70 420 -48 360 0 0 1 0 1 0 -1 0 0 3020.dat
0 P0324 ELEMENT 4211225
1 70 240 -40 270 1 0 0 0 1 0 -0 0 1 3010.dat
0 P0325 ELEMENT 4211225
1 70 240 -40 290 1 0 0 0 1 0 -0 0 1 3010.dat
0 P0326 ELEMENT 4211186
1 70 240 -48 280 1 0 0 0 1 0 -0 0 1 3020.dat
0 P0333 ELEMENT 4211201
1 70 40 -40 160 0 0 1 0 1 0 -1 0 0 3001.dat
0 P0334 ELEMENT 4211186
1 70 40 -48 160 0 0 1 0 1 0 -1 0 0 3020.dat
0 P0343 ELEMENT 4211201
1 70 440 -40 180 0 0 1 0 1 0 -1 0 0 3001.dat
0 P0344 ELEMENT 4211186
1 70 440 -48 180 0 0 1 0 1 0 -1 0 0 3020.dat
0 STEP
0 Step 14: Flowers and finishing
0 P0295 ELEMENT 4659665
1 15 370 -72 390 1 0 0 0 1 0 -0 0 1 3899.dat
0 P0298 ELEMENT 4211183
1 70 30 -72 310 1 0 0 0 1 0 -0 0 1 3062b.dat
0 P0299 ELEMENT 6400754
1 288 30 -80 310 1 0 0 0 1 0 -0 0 1 32607.dat
0 P0300 ELEMENT 6212501
1 29 30 -88 310 1 0 0 0 1 0 -0 0 1 24866.dat
0 P0301 ELEMENT 6447541
1 288 50 -56 330 0 0 1 0 1 0 -1 0 0 2682a.dat
0 P0302 ELEMENT 4211183
1 70 30 -72 350 1 0 0 0 1 0 -0 0 1 3062b.dat
0 P0303 ELEMENT 6229130
1 2 30 -80 350 1 0 0 0 1 0 -0 0 1 32607.dat
0 P0304 ELEMENT 6206149
1 15 30 -88 350 1 0 0 0 1 0 -0 0 1 24866.dat
0 P0305 ELEMENT 6229130
1 2 50 -56 370 -1 0 0 0 1 0 -0 0 -1 32607.dat
0 P0308 ELEMENT 6229130
1 2 70 -56 390 1 0 0 0 1 0 -0 0 1 32607.dat
0 P0309 ELEMENT 6206149
1 15 70 -64 390 1 0 0 0 1 0 -0 0 1 24866.dat
0 P0310 ELEMENT 6229130
1 2 90 -56 410 -1 0 0 0 1 0 -0 0 -1 32607.dat
0 P0311 ELEMENT 6182261
1 10 110 -56 390 1 0 0 0 1 0 -0 0 1 32607.dat
0 P0312 ELEMENT 6295242
1 353 110 -64 390 1 0 0 0 1 0 -0 0 1 24866.dat
0 P0313 ELEMENT 6229130
1 2 130 -56 410 -1 0 0 0 1 0 -0 0 -1 32607.dat
0 P0316 ELEMENT 4211183
1 70 410 -72 330 1 0 0 0 1 0 -0 0 1 3062b.dat
0 P0317 ELEMENT 6182261
1 10 410 -80 330 1 0 0 0 1 0 -0 0 1 32607.dat
0 P0318 ELEMENT 6295242
1 353 410 -88 330 1 0 0 0 1 0 -0 0 1 24866.dat
0 P0319 ELEMENT 6447541
1 288 430 -56 350 0 0 1 0 1 0 -1 0 0 2682a.dat
0 P0320 ELEMENT 4211183
1 70 410 -72 370 1 0 0 0 1 0 -0 0 1 3062b.dat
0 P0321 ELEMENT 6400754
1 288 410 -80 370 1 0 0 0 1 0 -0 0 1 32607.dat
0 P0322 ELEMENT 6212501
1 29 410 -88 370 1 0 0 0 1 0 -0 0 1 24866.dat
0 P0323 ELEMENT 6229130
1 2 430 -56 390 -1 0 0 0 1 0 -0 0 -1 32607.dat
0 P0327 ELEMENT 6400754
1 288 210 -56 270 -1 0 0 0 1 0 -0 0 -1 32607.dat
0 P0328 ELEMENT 6212501
1 29 210 -64 270 -1 0 0 0 1 0 -0 0 -1 24866.dat
0 P0329 ELEMENT 6229130
1 2 230 -56 290 -0 0 -1 0 1 0 1 0 -0 32607.dat
0 P0330 ELEMENT 6229130
1 2 250 -56 270 1 0 0 0 1 0 -0 0 1 32607.dat
0 P0331 ELEMENT 6206149
1 15 250 -64 270 1 0 0 0 1 0 -0 0 1 24866.dat
0 P0332 ELEMENT 6229130
1 2 270 -56 290 -0 0 -1 0 1 0 1 0 -0 32607.dat
0 P0335 ELEMENT 4211183
1 70 30 -72 130 1 0 0 0 1 0 -0 0 1 3062b.dat
0 P0336 ELEMENT 6229130
1 2 30 -80 130 -1 0 0 0 1 0 -0 0 -1 32607.dat
0 P0337 ELEMENT 6206149
1 15 30 -88 130 -1 0 0 0 1 0 -0 0 -1 24866.dat
0 P0338 ELEMENT 6447541
1 288 50 -56 130 -1 0 0 0 1 0 -0 0 -1 2682a.dat
0 P0339 ELEMENT 4211183
1 70 30 -72 170 1 0 0 0 1 0 -0 0 1 3062b.dat
0 P0340 ELEMENT 6182261
1 10 30 -80 170 -1 0 0 0 1 0 -0 0 -1 32607.dat
0 P0341 ELEMENT 6295242
1 353 30 -88 170 -1 0 0 0 1 0 -0 0 -1 24866.dat
0 P0342 ELEMENT 6229130
1 2 50 -56 190 -1 0 0 0 1 0 -0 0 -1 32607.dat
0 P0345 ELEMENT 4211183
1 70 430 -72 150 1 0 0 0 1 0 -0 0 1 3062b.dat
0 P0346 ELEMENT 6182261
1 10 430 -80 150 1 0 0 0 1 0 -0 0 1 32607.dat
0 P0347 ELEMENT 6295242
1 353 430 -88 150 1 0 0 0 1 0 -0 0 1 24866.dat
0 P0348 ELEMENT 6447541
1 288 450 -56 190 1 0 0 0 1 0 -0 0 1 2682a.dat
0 P0349 ELEMENT 4211183
1 70 430 -72 190 1 0 0 0 1 0 -0 0 1 3062b.dat
0 P0350 ELEMENT 6400754
1 288 430 -80 190 1 0 0 0 1 0 -0 0 1 32607.dat
0 P0351 ELEMENT 6212501
1 29 430 -88 190 1 0 0 0 1 0 -0 0 1 24866.dat
0 P0352 ELEMENT 6229130
1 2 450 -56 150 1 0 0 0 1 0 -0 0 1 32607.dat
