0 Japanese Zen Tea Pavilion & Koi Pond
0 Name: zen_tea_pavilion.ldr
0 Author: Antigravity
0 Theme: Architecture / Zen Garden MOC
0 !LICENSE Redistributable under CCAL version 2.0

0 // =========================================
0 // Step 1: Solid 12x10 Foundation Baseplate
0 // =========================================
1 72 60 0 100 1 0 0 0 1 0 0 0 1 3033.dat
1 28 180 0 100 1 0 0 0 1 0 0 0 1 3033.dat
0 STEP

0 // =========================================
0 // Step 2: Sunken Koi Pond & Stepping Stones
0 // =========================================
1 42 40 -8 30 1 0 0 0 1 0 0 0 1 3069b.dat
1 42 80 -8 30 1 0 0 0 1 0 0 0 1 3069b.dat
1 42 40 -8 50 1 0 0 0 1 0 0 0 1 3069b.dat
1 42 80 -8 50 1 0 0 0 1 0 0 0 1 3069b.dat
1 42 40 -8 70 1 0 0 0 1 0 0 0 1 3069b.dat
1 42 80 -8 70 1 0 0 0 1 0 0 0 1 3069b.dat
1 42 40 -8 90 1 0 0 0 1 0 0 0 1 3069b.dat
1 42 80 -8 90 1 0 0 0 1 0 0 0 1 3069b.dat
1 71 50 -16 50 1 0 0 0 1 0 0 0 1 4073.dat
1 71 70 -16 70 1 0 0 0 1 0 0 0 1 4073.dat
0 STEP

0 // =========================================
0 // Step 3: Stone Lantern & Bamboo Shoots
0 // =========================================
1 71 30 -8 150 1 0 0 0 1 0 0 0 1 3024.dat
1 71 30 -32 150 1 0 0 0 1 0 0 0 1 3005.dat
1 71 30 -40 150 1 0 0 0 1 0 0 0 1 3070b.dat
1 71 30 -48 150 1 0 0 0 1 0 0 0 1 4073.dat
1 2 30 -8 170 1 0 0 0 1 0 0 0 1 4073.dat
1 2 30 -16 170 1 0 0 0 1 0 0 0 1 4073.dat
1 2 30 -24 170 1 0 0 0 1 0 0 0 1 4073.dat
1 29 30 -32 170 1 0 0 0 1 0 0 0 1 4073.dat
1 2 30 -8 190 1 0 0 0 1 0 0 0 1 4073.dat
1 2 30 -16 190 1 0 0 0 1 0 0 0 1 4073.dat
1 29 30 -24 190 1 0 0 0 1 0 0 0 1 4073.dat
0 STEP

0 // =========================================
0 // Step 4: Raised Pavilion Deck & Tatami Floor
0 // =========================================
1 70 160 -8 60 1 0 0 0 1 0 0 0 1 3020.dat
1 70 160 -8 100 1 0 0 0 1 0 0 0 1 3020.dat
1 70 160 -8 140 1 0 0 0 1 0 0 0 1 3020.dat
1 70 210 -8 60 0 0 1 0 1 0 -1 0 0 3023.dat
1 70 210 -8 100 0 0 1 0 1 0 -1 0 0 3023.dat
1 70 210 -8 140 0 0 1 0 1 0 -1 0 0 3023.dat
1 19 160 -16 80 1 0 0 0 1 0 0 0 1 3068b.dat
1 19 200 -16 80 1 0 0 0 1 0 0 0 1 3068b.dat
1 19 160 -16 120 1 0 0 0 1 0 0 0 1 3068b.dat
1 19 200 -16 120 1 0 0 0 1 0 0 0 1 3068b.dat
0 STEP

0 // =========================================
0 // Step 5: Pavilion Support Pillars
0 // =========================================
1 70 130 -40 50 1 0 0 0 1 0 0 0 1 3005.dat
1 70 130 -64 50 1 0 0 0 1 0 0 0 1 3005.dat
1 70 130 -88 50 1 0 0 0 1 0 0 0 1 3005.dat
1 70 130 -40 150 1 0 0 0 1 0 0 0 1 3005.dat
1 70 130 -64 150 1 0 0 0 1 0 0 0 1 3005.dat
1 70 130 -88 150 1 0 0 0 1 0 0 0 1 3005.dat
1 70 230 -40 50 1 0 0 0 1 0 0 0 1 3005.dat
1 70 230 -64 50 1 0 0 0 1 0 0 0 1 3005.dat
1 70 230 -88 50 1 0 0 0 1 0 0 0 1 3005.dat
1 70 230 -40 150 1 0 0 0 1 0 0 0 1 3005.dat
1 70 230 -64 150 1 0 0 0 1 0 0 0 1 3005.dat
1 70 230 -88 150 1 0 0 0 1 0 0 0 1 3005.dat
0 STEP

0 // =========================================
0 // Step 6: White Shoji Screen Wall
0 // =========================================
1 15 230 -40 80 0 0 1 0 1 0 -1 0 0 3004.dat
1 15 230 -40 120 0 0 1 0 1 0 -1 0 0 3004.dat
1 15 230 -64 80 0 0 1 0 1 0 -1 0 0 3004.dat
1 15 230 -64 120 0 0 1 0 1 0 -1 0 0 3004.dat
1 15 230 -88 80 0 0 1 0 1 0 -1 0 0 3004.dat
1 15 230 -88 120 0 0 1 0 1 0 -1 0 0 3004.dat
1 15 160 -40 50 1 0 0 0 1 0 0 0 1 3004.dat
1 15 200 -40 50 1 0 0 0 1 0 0 0 1 3004.dat
1 15 160 -64 50 1 0 0 0 1 0 0 0 1 3004.dat
1 15 200 -64 50 1 0 0 0 1 0 0 0 1 3004.dat
1 15 160 -88 50 1 0 0 0 1 0 0 0 1 3004.dat
1 15 200 -88 50 1 0 0 0 1 0 0 0 1 3004.dat
0 STEP

0 // =========================================
0 // Step 7: Timber Crossbeam Ring
0 // =========================================
1 70 130 -96 100 0 0 1 0 1 0 -1 0 0 3666.dat
1 70 230 -96 100 0 0 1 0 1 0 -1 0 0 3666.dat
1 70 180 -96 150 1 0 0 0 1 0 0 0 1 3710.dat
1 70 180 -96 50 1 0 0 0 1 0 0 0 1 3710.dat
0 STEP

0 // =========================================
0 // Step 8: Tiered Pagoda Roof & Golden Finial
0 // =========================================
1 72 140 -104 100 0 0 1 0 1 0 -1 0 0 3795.dat
1 72 200 -104 100 0 0 1 0 1 0 -1 0 0 3032.dat
1 72 140 -112 60 1 0 0 0 1 0 0 0 1 3068b.dat
1 72 140 -112 100 1 0 0 0 1 0 0 0 1 3068b.dat
1 72 140 -112 140 1 0 0 0 1 0 0 0 1 3068b.dat
1 72 220 -112 60 1 0 0 0 1 0 0 0 1 3068b.dat
1 72 220 -112 100 1 0 0 0 1 0 0 0 1 3068b.dat
1 72 220 -112 140 1 0 0 0 1 0 0 0 1 3068b.dat
1 72 160 -120 80 1 0 0 0 1 0 0 0 1 3022.dat
1 72 200 -120 80 1 0 0 0 1 0 0 0 1 3022.dat
1 72 160 -120 120 1 0 0 0 1 0 0 0 1 3022.dat
1 72 200 -120 120 1 0 0 0 1 0 0 0 1 3022.dat
1 72 180 -144 100 1 0 0 0 1 0 0 0 1 3003.dat
1 72 180 -152 100 1 0 0 0 1 0 0 0 1 87580.dat
1 383 180 -176 100 1 0 0 0 1 0 0 0 1 3941.dat
1 383 180 -184 100 1 0 0 0 1 0 0 0 1 4073.dat
0 STEP

0 // =========================================
0 // Step 9: Vermilion Arched Footbridge & Garden Pier
0 // =========================================
1 71 50 -8 120 0 0 1 0 1 0 -1 0 0 3023.dat
1 4 80 -16 110 1 0 0 0 1 0 0 0 1 3710.dat
1 4 80 -16 130 1 0 0 0 1 0 0 0 1 3710.dat
1 4 50 -24 110 1 0 0 0 1 0 0 0 1 4073.dat
1 4 50 -24 130 1 0 0 0 1 0 0 0 1 4073.dat
1 4 110 -24 110 1 0 0 0 1 0 0 0 1 4073.dat
1 4 110 -24 130 1 0 0 0 1 0 0 0 1 4073.dat
0 STEP

